<svg width="358" height="469" viewBox="0 0 358 469" fill="none" xmlns="http://www.w3.org/2000/svg">
<rect width="315.877" height="414.373" rx="17" transform="matrix(0.995267 0.0971757 -0.0500179 0.998748 43.584 24.3252)" fill="#2A88BC"/>
<mask id="mask0_28_675" style="mask-type:alpha" maskUnits="userSpaceOnUse" x="0" y="0" width="324" height="434">
<rect width="324" height="434" rx="17" fill="#44A1D5"/>
</mask>
<g mask="url(#mask0_28_675)">
<rect width="324" height="434" rx="17" fill="#44A1D5"/>
<path opacity="0.16" d="M204.059 -73.117C169.156 -28.6695 148.383 25.1175 144.449 81.2261C140.516 137.335 153.606 193.159 182.01 241.416C182.999 243.237 184.372 244.819 186.036 246.055C187.7 247.291 189.615 248.151 191.651 248.576C193.686 249.001 195.794 248.982 197.83 248.519C199.866 248.056 201.782 247.161 203.447 245.894C261.99 203.181 305.198 142.739 326.54 73.7052L364.89 119.676C364.89 119.676 351.854 148.682 342.574 166.093C342.271 166.804 342.168 167.583 342.278 168.344C342.388 169.105 342.706 169.82 343.197 170.409C343.689 170.998 344.334 171.439 345.064 171.683C345.793 171.928 346.577 171.967 347.331 171.795C363 165.081 379.362 160.15 396.105 157.095L423.158 189.524C351.475 200.771 285.673 236.442 236.962 290.459C236.047 291.462 235.371 292.657 234.987 293.955C234.603 295.253 234.52 296.618 234.745 297.946C234.969 299.275 235.496 300.532 236.284 301.62C237.073 302.709 238.102 303.601 239.293 304.229L406.938 373.487L325.958 441.042C297.914 406.467 262.772 378.308 222.86 358.43C221.204 357.559 219.358 357.103 217.479 357.099C215.6 357.096 213.744 357.545 212.068 358.409C210.391 359.274 208.945 360.527 207.852 362.063C206.759 363.599 206.05 365.373 205.788 367.232C198.572 404.679 181.167 503.81 198.064 548.942L151.995 587.373L146.38 531.62C146.374 530.885 146.149 530.17 145.735 529.566C145.321 528.961 144.736 528.495 144.054 528.224C143.371 527.953 142.622 527.891 141.9 528.045C141.178 528.199 140.516 528.562 139.996 529.089C114.877 547.578 96.3528 573.633 87.1973 603.354L40.8207 547.761C40.8207 547.761 135.256 505.847 165.699 349.908C166.072 347.724 165.97 345.491 165.399 343.36C164.828 341.228 163.802 339.249 162.392 337.558C160.981 335.867 159.218 334.503 157.223 333.559C155.229 332.615 153.05 332.114 150.835 332.09C110.066 329.89 69.1912 335.91 30.6456 349.791C-7.90005 363.672 -43.3273 385.13 -73.525 412.886L-112.767 365.846C-89.6523 349.35 -64.1799 336.457 -37.2337 327.614C-35.0742 325.813 -32.5548 323.711 -36.9047 320.692C-79.325 301.416 -125.839 292.564 -172.584 294.874L-229.96 226.095L-161.577 169.049C-161.577 169.049 -50.0335 329.831 138.085 281.685C139.444 281.355 140.725 280.753 141.849 279.915C142.972 279.077 143.915 278.021 144.619 276.811C145.324 275.601 145.775 274.263 145.946 272.878C146.117 271.494 146.003 270.092 145.612 268.758C132.814 229.271 89.6333 78.4237 -25.3445 61.3239L9.5 -24.5L72.1885 69.5273C72.8673 70.2641 73.7502 70.7831 74.7273 71.0197C75.7044 71.2562 76.7325 71.1998 77.6833 70.8576C78.6342 70.5154 79.466 69.9024 80.0749 69.095C80.6838 68.2877 81.043 67.3217 81.1078 66.3173C79.0857 32.8648 79.8516 -0.724611 83.3976 -34.1047L213.249 -221.27L262.878 -143.611L204.059 -73.117Z" fill="#79CFFF"/>
</g>
</svg>
