<svg width="1680" height="893" viewBox="0 0 1680 893" fill="none" xmlns="http://www.w3.org/2000/svg">
<mask id="mask0_33_52" style="mask-type:alpha" maskUnits="userSpaceOnUse" x="0" y="0" width="1680" height="893">
<rect width="1680" height="893" fill="url(#paint0_linear_33_52)"/>
</mask>
<g mask="url(#mask0_33_52)">
<rect width="1680" height="893" fill="#F3F3F3"/>
<path opacity="0.42" d="M-55.3649 52.4282C-9.8563 118.378 54.2398 169.123 128.56 198.041C202.881 226.959 283.975 232.709 361.26 214.538C364.142 213.965 366.862 212.771 369.235 211.037C371.608 209.304 373.578 207.072 375.01 204.495C376.441 201.918 377.301 199.055 377.531 196.104C377.76 193.153 377.353 190.182 376.338 187.394C343.118 90.1631 279.445 6.2424 194.942 -51.6836L273.315 -84.2817C273.315 -84.2817 307.11 -54.4337 326.784 -34.5469C327.619 -33.8368 328.63 -33.3707 329.707 -33.1995C330.784 -33.0282 331.885 -33.1583 332.889 -33.576C333.893 -33.9936 334.761 -34.6827 335.399 -35.5671C336.037 -36.4515 336.419 -37.4974 336.504 -38.5901C334.002 -62.6301 334.204 -86.8589 337.107 -110.815L392.394 -133.811C377.482 -32.0177 398.114 72.0807 450.774 160.752C451.747 162.413 453.082 163.83 454.677 164.896C456.273 165.962 458.086 166.649 459.98 166.903C461.874 167.157 463.797 166.972 465.602 166.363C467.408 165.753 469.049 164.735 470.399 163.386L594.587 -130.863L737.696 -147.607C679.088 -124.173 580.579 162.742 536.881 208.428C535.006 210.304 533.612 212.611 532.817 215.154C532.022 217.697 531.85 220.399 532.315 223.032C532.781 225.665 533.87 228.15 535.49 230.277C537.11 232.403 539.214 234.108 541.621 235.245C589.292 260.761 900.782 359.017 968.999 355.114L855.414 428.351L739.233 384.808C738.234 384.508 737.172 384.512 736.18 384.818C735.187 385.125 734.309 385.72 733.656 386.531C733.002 387.341 732.603 388.33 732.508 389.372C732.413 390.414 732.626 391.464 733.121 392.388C747.594 434.176 830.662 522.758 867.056 547.652L715.056 547.652C715.056 547.652 699.657 389.034 501.307 282.243C498.507 280.819 495.44 280.019 492.314 279.896C489.188 279.773 486.077 280.33 483.194 281.529C480.31 282.728 477.722 284.542 475.606 286.845C473.489 289.149 471.894 291.889 470.93 294.878C450.809 349.156 441.773 407.035 444.361 465.065C446.949 523.094 461.108 580.088 485.994 632.648L405.799 666.004C393.181 627.77 386.434 587.857 385.79 547.652C384.259 543.971 382.473 539.675 376.555 544.296C332.617 593.63 301.074 652.891 284.546 717.158L167.29 765.928L118.799 649.346C118.799 649.346 383.41 565.916 397.318 290.948C397.443 288.968 397.166 286.981 396.504 285.107C395.842 283.234 394.808 281.513 393.466 280.05C392.124 278.588 390.502 277.414 388.698 276.601C386.895 275.787 384.949 275.352 382.978 275.32C324.13 276.046 67.5564 348.688 -3.94375 497.185L-12.4414 330.389L82.3351 290.968C83.6182 290.358 84.6923 289.381 85.4235 288.157C86.1546 286.934 86.5105 285.518 86.4469 284.087C86.3834 282.655 85.9031 281.271 85.0659 280.107C84.2287 278.943 83.0718 278.051 81.739 277.541C35.5921 266.212 -9.56793 251.052 -53.2756 232.214L-118.1 76.3628L-57.3456 51.0929L-55.3649 52.4282Z" fill="#EBEBEB"/>
<path opacity="0.34" d="M1014.6 71.619C1058.27 138.802 1120.94 191.299 1194.43 222.261C1267.92 253.223 1348.83 261.212 1426.59 245.185C1429.48 244.691 1432.23 243.573 1434.65 241.906C1437.07 240.239 1439.11 238.062 1440.61 235.525C1442.11 232.989 1443.05 230.151 1443.36 227.207C1443.67 224.263 1443.35 221.282 1442.41 218.468C1411.89 120.356 1350.56 34.7069 1267.69 -25.533L1346.94 -55.952C1346.94 -55.952 1379.89 -25.1812 1399.01 -4.75811C1399.82 -4.02521 1400.82 -3.53132 1401.89 -3.33036C1402.97 -3.1294 1404.07 -3.22912 1405.08 -3.61883C1406.1 -4.00854 1406.99 -4.67329 1407.65 -5.53976C1408.31 -6.40623 1408.72 -7.4411 1408.84 -8.53106C1407 -32.6311 1407.87 -56.845 1411.44 -80.7116L1467.34 -102.17C1449.62 -0.828378 1467.36 103.801 1517.55 193.894C1518.48 195.581 1519.77 197.035 1521.34 198.144C1522.9 199.254 1524.7 199.99 1526.58 200.297C1528.47 200.603 1530.4 200.472 1532.22 199.912C1534.04 199.353 1535.71 198.38 1537.1 197.069L1706.78 3.80641L1760.36 143.399C1701.13 165.204 1647.25 199.472 1602.31 243.932C1600.38 245.755 1598.92 248.023 1598.06 250.543C1597.2 253.063 1596.95 255.76 1597.34 258.405C1597.73 261.049 1598.75 263.564 1600.31 265.734C1601.87 267.904 1603.93 269.667 1606.31 270.871C1653.25 297.694 1778.31 366.429 1846.61 364.414L1877.09 443.826L1799.71 425.839C1798.72 425.512 1797.66 425.486 1796.65 425.765C1795.65 426.044 1794.76 426.615 1794.08 427.407C1793.41 428.199 1792.98 429.176 1792.86 430.215C1792.73 431.255 1792.92 432.31 1793.39 433.248C1806.7 475.419 1833.18 512.204 1868.88 538.094L1773.05 574.88C1773.05 574.88 1760.03 428.969 1564.71 316.735C1561.95 315.235 1558.9 314.35 1555.78 314.141C1552.66 313.931 1549.54 314.402 1546.62 315.521C1543.71 316.64 1541.07 318.381 1538.89 320.626C1536.71 322.87 1535.04 325.565 1533.99 328.526C1512.38 382.227 1501.75 439.834 1502.73 497.913C1503.71 555.992 1516.29 613.355 1539.71 666.583L1458.63 697.71C1447.07 659.141 1441.43 619.057 1441.9 578.85C1440.47 575.127 1438.8 570.784 1432.76 575.24C1387.47 623.34 1354.3 681.707 1336.01 745.492L1217.45 791.002L1172.2 673.124C1172.2 673.124 1439.01 597.041 1460.52 322.562C1460.7 320.587 1460.48 318.593 1459.87 316.702C1459.25 314.81 1458.27 313.062 1456.97 311.563C1455.67 310.063 1454.08 308.845 1452.3 307.982C1450.52 307.119 1448.58 306.63 1446.62 306.544C1387.77 305.642 1165.58 294.537 1090 441L1049.82 350.66L1145.65 313.874C1146.95 313.3 1148.05 312.353 1148.82 311.15C1149.58 309.947 1149.98 308.542 1149.95 307.109C1149.93 305.677 1149.49 304.28 1148.68 303.093C1147.88 301.906 1146.75 300.982 1145.43 300.436C1099.61 287.836 1054.89 271.433 1011.72 251.394L820 -8.53113L946.93 -39.5806L1014.6 71.619Z" fill="#EBEBEB"/>
</g>
<defs>
<linearGradient id="paint0_linear_33_52" x1="1.47478e-05" y1="103.232" x2="1731.29" y2="400.553" gradientUnits="userSpaceOnUse">
<stop stop-color="#4B9FCE"/>
<stop offset="0.265055" stop-color="#68B8E3"/>
<stop offset="1" stop-color="#45A6DA"/>
</linearGradient>
</defs>
</svg>
