<svg width="31" height="31" viewBox="0 0 31 31" fill="none" xmlns="http://www.w3.org/2000/svg">
<path d="M15.4997 2.58337C8.39551 2.58337 2.58301 8.39587 2.58301 15.5C2.58301 18.4709 3.61634 21.3125 5.55384 23.6375L2.97051 26.2209C2.45384 26.7375 2.45384 27.5125 2.97051 28.0292C3.22884 28.2875 3.48717 28.4167 3.87467 28.4167H15.4997C22.6038 28.4167 28.4163 22.6042 28.4163 15.5C28.4163 8.39587 22.6038 2.58337 15.4997 2.58337ZM10.333 16.7917C9.55801 16.7917 9.04134 16.275 9.04134 15.5C9.04134 14.725 9.55801 14.2084 10.333 14.2084C11.108 14.2084 11.6247 14.725 11.6247 15.5C11.6247 16.275 11.108 16.7917 10.333 16.7917ZM15.4997 16.7917C14.7247 16.7917 14.208 16.275 14.208 15.5C14.208 14.725 14.7247 14.2084 15.4997 14.2084C16.2747 14.2084 16.7913 14.725 16.7913 15.5C16.7913 16.275 16.2747 16.7917 15.4997 16.7917ZM20.6663 16.7917C19.8913 16.7917 19.3747 16.275 19.3747 15.5C19.3747 14.725 19.8913 14.2084 20.6663 14.2084C21.4413 14.2084 21.958 14.725 21.958 15.5C21.958 16.275 21.4413 16.7917 20.6663 16.7917Z" fill="white"/>
</svg>
