<svg width="22" height="22" viewBox="0 0 22 22" fill="none" xmlns="http://www.w3.org/2000/svg">
<path d="M10.5926 0C4.74249 0 0 4.92483 0 11C0 17.0752 4.74243 22 10.5926 22C16.4428 22 21.1852 17.0752 21.1852 11C21.1852 4.92483 16.4428 0 10.5926 0ZM10.5926 3.4375C10.9583 3.4375 11.2546 3.74538 11.2546 4.12494V10.3124H16.551C16.9167 10.3124 17.213 10.6203 17.213 10.9999C17.213 11.3797 16.9165 11.6873 16.551 11.6873H10.5927C10.2269 11.6873 9.93067 11.3794 9.93067 10.9999V4.12488C9.93067 3.74506 10.2271 3.4375 10.5926 3.4375Z" fill="#728D9B"/>
</svg>
