<svg width="218" height="56" viewBox="0 0 218 56" fill="none" xmlns="http://www.w3.org/2000/svg">
<rect x="8" y="16.4395" width="207" height="39" rx="19.5" transform="rotate(-4 8 16.4395)" fill="#2C96D0"/>
<rect width="207" height="39" rx="19.5" fill="#58BFF8"/>
<path d="M37.6328 20.136V18.488H43.4088V20.136H37.6328ZM39.0888 13.64C39.9101 13.64 40.6675 13.784 41.3608 14.072C42.0541 14.3493 42.6568 14.7493 43.1688 15.272C43.6915 15.784 44.0915 16.392 44.3688 17.096C44.6568 17.8 44.8008 18.568 44.8008 19.4C44.8008 20.232 44.6568 21 44.3688 21.704C44.0915 22.408 43.6915 23.0213 43.1688 23.544C42.6568 24.056 42.0541 24.456 41.3608 24.744C40.6675 25.0213 39.9101 25.16 39.0888 25.16C38.1395 25.16 37.2755 25 36.4968 24.68C35.7288 24.36 35.0888 23.896 34.5768 23.288L35.8888 22.008C36.3048 22.456 36.7688 22.792 37.2808 23.016C37.8035 23.2293 38.3688 23.336 38.9768 23.336C39.5101 23.336 40.0061 23.24 40.4648 23.048C40.9235 22.8453 41.3181 22.5733 41.6488 22.232C41.9795 21.88 42.2355 21.464 42.4168 20.984C42.5981 20.504 42.6888 19.976 42.6888 19.4C42.6888 18.824 42.5981 18.296 42.4168 17.816C42.2355 17.336 41.9795 16.9253 41.6488 16.584C41.3181 16.232 40.9235 15.96 40.4648 15.768C40.0061 15.5653 39.5101 15.464 38.9768 15.464C38.3688 15.464 37.8035 15.576 37.2808 15.8C36.7688 16.0133 36.3048 16.344 35.8888 16.792L34.5768 15.512C35.0888 14.904 35.7288 14.44 36.4968 14.12C37.2755 13.8 38.1395 13.64 39.0888 13.64ZM52.7042 25L49.6162 20.904L51.2482 19.896L55.0562 25H52.7042ZM46.5762 25V16.456H48.5762V25H46.5762ZM47.9842 21.576V19.912H50.8802V21.576H47.9842ZM51.4402 20.968L49.5682 20.744L52.7042 16.456H54.8482L51.4402 20.968ZM59.7536 25.112C58.8576 25.112 58.0576 24.9253 57.3536 24.552C56.6602 24.168 56.1162 23.6453 55.7216 22.984C55.3269 22.3227 55.1296 21.5707 55.1296 20.728C55.1296 19.8747 55.3269 19.1227 55.7216 18.472C56.1162 17.8107 56.6602 17.2933 57.3536 16.92C58.0576 16.5467 58.8576 16.36 59.7536 16.36C60.5856 16.36 61.3162 16.5307 61.9456 16.872C62.5856 17.2027 63.0709 17.6933 63.4016 18.344L61.8656 19.24C61.6096 18.8347 61.2949 18.536 60.9216 18.344C60.5589 18.152 60.1642 18.056 59.7376 18.056C59.2469 18.056 58.8042 18.1627 58.4096 18.376C58.0149 18.5893 57.7056 18.8987 57.4816 19.304C57.2576 19.6987 57.1456 20.1733 57.1456 20.728C57.1456 21.2827 57.2576 21.7627 57.4816 22.168C57.7056 22.5627 58.0149 22.8667 58.4096 23.08C58.8042 23.2933 59.2469 23.4 59.7376 23.4C60.1642 23.4 60.5589 23.304 60.9216 23.112C61.2949 22.92 61.6096 22.6213 61.8656 22.216L63.4016 23.112C63.0709 23.752 62.5856 24.248 61.9456 24.6C61.3162 24.9413 60.5856 25.112 59.7536 25.112ZM64.8424 25V16.456H73.0344V25H71.0504V17.688L71.5144 18.152H66.3784L66.8424 17.688V25H64.8424ZM80.1491 25.112C79.4557 25.112 78.8211 24.952 78.2451 24.632C77.6797 24.312 77.2264 23.832 76.8851 23.192C76.5544 22.5413 76.3891 21.72 76.3891 20.728C76.3891 19.7253 76.5491 18.904 76.8691 18.264C77.1997 17.624 77.6477 17.1493 78.2131 16.84C78.7784 16.52 79.4237 16.36 80.1491 16.36C80.9917 16.36 81.7331 16.5413 82.3731 16.904C83.0237 17.2667 83.5357 17.7733 83.9091 18.424C84.2931 19.0747 84.4851 19.8427 84.4851 20.728C84.4851 21.6133 84.2931 22.3867 83.9091 23.048C83.5357 23.6987 83.0237 24.2053 82.3731 24.568C81.7331 24.9307 80.9917 25.112 80.1491 25.112ZM75.4131 28.104V16.456H77.3171V18.472L77.2531 20.744L77.4131 23.016V28.104H75.4131ZM79.9251 23.4C80.4051 23.4 80.8317 23.2933 81.2051 23.08C81.5891 22.8667 81.8931 22.5573 82.1171 22.152C82.3411 21.7467 82.4531 21.272 82.4531 20.728C82.4531 20.1733 82.3411 19.6987 82.1171 19.304C81.8931 18.8987 81.5891 18.5893 81.2051 18.376C80.8317 18.1627 80.4051 18.056 79.9251 18.056C79.4451 18.056 79.0131 18.1627 78.6291 18.376C78.2451 18.5893 77.9411 18.8987 77.7171 19.304C77.4931 19.6987 77.3811 20.1733 77.3811 20.728C77.3811 21.272 77.4931 21.7467 77.7171 22.152C77.9411 22.5573 78.2451 22.8667 78.6291 23.08C79.0131 23.2933 79.4451 23.4 79.9251 23.4ZM90.1396 25.112C89.1902 25.112 88.3582 24.9253 87.6436 24.552C86.9396 24.168 86.3902 23.6453 85.9956 22.984C85.6116 22.3227 85.4196 21.5707 85.4196 20.728C85.4196 19.8747 85.6062 19.1227 85.9796 18.472C86.3636 17.8107 86.8862 17.2933 87.5476 16.92C88.2196 16.5467 88.9822 16.36 89.8356 16.36C90.6676 16.36 91.4089 16.5413 92.0596 16.904C92.7102 17.2667 93.2222 17.7787 93.5956 18.44C93.9689 19.1013 94.1556 19.88 94.1556 20.776C94.1556 20.8613 94.1502 20.9573 94.1396 21.064C94.1396 21.1707 94.1342 21.272 94.1236 21.368H87.0036V20.04H93.0676L92.2836 20.456C92.2942 19.9653 92.1929 19.5333 91.9796 19.16C91.7662 18.7867 91.4729 18.4933 91.0996 18.28C90.7369 18.0667 90.3156 17.96 89.8356 17.96C89.3449 17.96 88.9129 18.0667 88.5396 18.28C88.1769 18.4933 87.8889 18.792 87.6756 19.176C87.4729 19.5493 87.3716 19.992 87.3716 20.504V20.824C87.3716 21.336 87.4889 21.7893 87.7236 22.184C87.9582 22.5787 88.2889 22.8827 88.7156 23.096C89.1422 23.3093 89.6329 23.416 90.1876 23.416C90.6676 23.416 91.0996 23.3413 91.4836 23.192C91.8676 23.0427 92.2089 22.808 92.5076 22.488L93.5796 23.72C93.1956 24.168 92.7102 24.5147 92.1236 24.76C91.5476 24.9947 90.8862 25.112 90.1396 25.112ZM99.9111 25.112C99.0151 25.112 98.2151 24.9253 97.5111 24.552C96.8177 24.168 96.2737 23.6453 95.8791 22.984C95.4844 22.3227 95.2871 21.5707 95.2871 20.728C95.2871 19.8747 95.4844 19.1227 95.8791 18.472C96.2737 17.8107 96.8177 17.2933 97.5111 16.92C98.2151 16.5467 99.0151 16.36 99.9111 16.36C100.743 16.36 101.474 16.5307 102.103 16.872C102.743 17.2027 103.228 17.6933 103.559 18.344L102.023 19.24C101.767 18.8347 101.452 18.536 101.079 18.344C100.716 18.152 100.322 18.056 99.8951 18.056C99.4044 18.056 98.9617 18.1627 98.5671 18.376C98.1724 18.5893 97.8631 18.8987 97.6391 19.304C97.4151 19.6987 97.3031 20.1733 97.3031 20.728C97.3031 21.2827 97.4151 21.7627 97.6391 22.168C97.8631 22.5627 98.1724 22.8667 98.5671 23.08C98.9617 23.2933 99.4044 23.4 99.8951 23.4C100.322 23.4 100.716 23.304 101.079 23.112C101.452 22.92 101.767 22.6213 102.023 22.216L103.559 23.112C103.228 23.752 102.743 24.248 102.103 24.6C101.474 24.9413 100.743 25.112 99.9111 25.112ZM108.763 25.112C107.867 25.112 107.067 24.9253 106.363 24.552C105.67 24.168 105.126 23.6453 104.731 22.984C104.336 22.3227 104.139 21.5707 104.139 20.728C104.139 19.8747 104.336 19.1227 104.731 18.472C105.126 17.8107 105.67 17.2933 106.363 16.92C107.067 16.5467 107.867 16.36 108.763 16.36C109.595 16.36 110.326 16.5307 110.955 16.872C111.595 17.2027 112.08 17.6933 112.411 18.344L110.875 19.24C110.619 18.8347 110.304 18.536 109.931 18.344C109.568 18.152 109.174 18.056 108.747 18.056C108.256 18.056 107.814 18.1627 107.419 18.376C107.024 18.5893 106.715 18.8987 106.491 19.304C106.267 19.6987 106.155 20.1733 106.155 20.728C106.155 21.2827 106.267 21.7627 106.491 22.168C106.715 22.5627 107.024 22.8667 107.419 23.08C107.814 23.2933 108.256 23.4 108.747 23.4C109.174 23.4 109.568 23.304 109.931 23.112C110.304 22.92 110.619 22.6213 110.875 22.216L112.411 23.112C112.08 23.752 111.595 24.248 110.955 24.6C110.326 24.9413 109.595 25.112 108.763 25.112ZM123.81 24.072V18.152H120.53L120.482 19.528C120.46 20.0187 120.428 20.4933 120.386 20.952C120.343 21.4 120.274 21.816 120.178 22.2C120.082 22.5733 119.943 22.8827 119.762 23.128C119.58 23.3733 119.34 23.5333 119.042 23.608L117.058 23.304C117.378 23.304 117.634 23.2027 117.826 23C118.028 22.7867 118.183 22.4987 118.29 22.136C118.407 21.7627 118.492 21.3413 118.546 20.872C118.599 20.392 118.636 19.896 118.658 19.384L118.77 16.456H125.81V24.072H123.81ZM116.754 26.904V23.304H127.074V26.904H125.202V25H118.61V26.904H116.754ZM132.348 25.112C131.473 25.112 130.695 24.9253 130.012 24.552C129.329 24.168 128.791 23.6453 128.396 22.984C128.001 22.3227 127.804 21.5707 127.804 20.728C127.804 19.8747 128.001 19.1227 128.396 18.472C128.791 17.8107 129.329 17.2933 130.012 16.92C130.695 16.5467 131.473 16.36 132.348 16.36C133.233 16.36 134.017 16.5467 134.7 16.92C135.393 17.2933 135.932 17.8053 136.316 18.456C136.711 19.1067 136.908 19.864 136.908 20.728C136.908 21.5707 136.711 22.3227 136.316 22.984C135.932 23.6453 135.393 24.168 134.7 24.552C134.017 24.9253 133.233 25.112 132.348 25.112ZM132.348 23.4C132.839 23.4 133.276 23.2933 133.66 23.08C134.044 22.8667 134.343 22.5573 134.556 22.152C134.78 21.7467 134.892 21.272 134.892 20.728C134.892 20.1733 134.78 19.6987 134.556 19.304C134.343 18.8987 134.044 18.5893 133.66 18.376C133.276 18.1627 132.844 18.056 132.364 18.056C131.873 18.056 131.436 18.1627 131.052 18.376C130.679 18.5893 130.38 18.8987 130.156 19.304C129.932 19.6987 129.82 20.1733 129.82 20.728C129.82 21.272 129.932 21.7467 130.156 22.152C130.38 22.5573 130.679 22.8667 131.052 23.08C131.436 23.2933 131.868 23.4 132.348 23.4ZM142.452 25.112C141.556 25.112 140.756 24.9253 140.052 24.552C139.358 24.168 138.814 23.6453 138.42 22.984C138.025 22.3227 137.828 21.5707 137.828 20.728C137.828 19.8747 138.025 19.1227 138.42 18.472C138.814 17.8107 139.358 17.2933 140.052 16.92C140.756 16.5467 141.556 16.36 142.452 16.36C143.284 16.36 144.014 16.5307 144.644 16.872C145.284 17.2027 145.769 17.6933 146.1 18.344L144.564 19.24C144.308 18.8347 143.993 18.536 143.62 18.344C143.257 18.152 142.862 18.056 142.436 18.056C141.945 18.056 141.502 18.1627 141.108 18.376C140.713 18.5893 140.404 18.8987 140.18 19.304C139.956 19.6987 139.844 20.1733 139.844 20.728C139.844 21.2827 139.956 21.7627 140.18 22.168C140.404 22.5627 140.713 22.8667 141.108 23.08C141.502 23.2933 141.945 23.4 142.436 23.4C142.862 23.4 143.257 23.304 143.62 23.112C143.993 22.92 144.308 22.6213 144.564 22.216L146.1 23.112C145.769 23.752 145.284 24.248 144.644 24.6C144.014 24.9413 143.284 25.112 142.452 25.112ZM149.254 25V17.672L149.718 18.152H146.246V16.456H154.246V18.152H150.79L151.254 17.672V25H149.254ZM160.561 25V23.272L160.449 22.904V19.88C160.449 19.2933 160.273 18.84 159.921 18.52C159.569 18.1893 159.035 18.024 158.321 18.024C157.841 18.024 157.366 18.0987 156.897 18.248C156.438 18.3973 156.049 18.6053 155.729 18.872L154.945 17.416C155.403 17.064 155.947 16.8027 156.577 16.632C157.217 16.4507 157.878 16.36 158.561 16.36C159.798 16.36 160.753 16.6587 161.425 17.256C162.107 17.8427 162.449 18.7547 162.449 19.992V25H160.561ZM157.873 25.112C157.233 25.112 156.673 25.0053 156.193 24.792C155.713 24.568 155.339 24.264 155.073 23.88C154.817 23.4853 154.689 23.0427 154.689 22.552C154.689 22.072 154.801 21.64 155.025 21.256C155.259 20.872 155.638 20.568 156.161 20.344C156.683 20.12 157.377 20.008 158.241 20.008H160.721V21.336H158.385C157.702 21.336 157.243 21.448 157.009 21.672C156.774 21.8853 156.657 22.152 156.657 22.472C156.657 22.8347 156.801 23.1227 157.089 23.336C157.377 23.5493 157.777 23.656 158.289 23.656C158.779 23.656 159.217 23.544 159.601 23.32C159.995 23.096 160.278 22.7653 160.449 22.328L160.785 23.528C160.593 24.0293 160.246 24.4187 159.745 24.696C159.254 24.9733 158.63 25.112 157.873 25.112ZM164.604 25V16.456H168.78C169.814 16.456 170.625 16.648 171.212 17.032C171.809 17.416 172.108 17.96 172.108 18.664C172.108 19.3573 171.83 19.9013 171.276 20.296C170.721 20.68 169.985 20.872 169.068 20.872L169.308 20.376C170.342 20.376 171.11 20.568 171.612 20.952C172.124 21.3253 172.38 21.8747 172.38 22.6C172.38 23.3573 172.097 23.9493 171.532 24.376C170.966 24.792 170.108 25 168.956 25H164.604ZM166.508 23.544H168.796C169.34 23.544 169.75 23.4587 170.028 23.288C170.305 23.1067 170.444 22.8347 170.444 22.472C170.444 22.088 170.316 21.8053 170.06 21.624C169.804 21.4427 169.404 21.352 168.86 21.352H166.508V23.544ZM166.508 20.024H168.604C169.116 20.024 169.5 19.9333 169.756 19.752C170.022 19.56 170.156 19.2933 170.156 18.952C170.156 18.6 170.022 18.3387 169.756 18.168C169.5 17.9973 169.116 17.912 168.604 17.912H166.508V20.024ZM180.318 25L177.23 20.904L178.862 19.896L182.67 25H180.318ZM174.19 25V16.456H176.19V25H174.19ZM175.598 21.576V19.912H178.494V21.576H175.598ZM179.054 20.968L177.182 20.744L180.318 16.456H182.462L179.054 20.968ZM188.788 25V23.272L188.676 22.904V19.88C188.676 19.2933 188.5 18.84 188.148 18.52C187.796 18.1893 187.263 18.024 186.548 18.024C186.068 18.024 185.594 18.0987 185.124 18.248C184.666 18.3973 184.276 18.6053 183.956 18.872L183.172 17.416C183.631 17.064 184.175 16.8027 184.804 16.632C185.444 16.4507 186.106 16.36 186.788 16.36C188.026 16.36 188.98 16.6587 189.652 17.256C190.335 17.8427 190.676 18.7547 190.676 19.992V25H188.788ZM186.1 25.112C185.46 25.112 184.9 25.0053 184.42 24.792C183.94 24.568 183.567 24.264 183.3 23.88C183.044 23.4853 182.916 23.0427 182.916 22.552C182.916 22.072 183.028 21.64 183.252 21.256C183.487 20.872 183.866 20.568 184.388 20.344C184.911 20.12 185.604 20.008 186.468 20.008H188.948V21.336H186.612C185.93 21.336 185.471 21.448 185.236 21.672C185.002 21.8853 184.884 22.152 184.884 22.472C184.884 22.8347 185.028 23.1227 185.316 23.336C185.604 23.5493 186.004 23.656 186.516 23.656C187.007 23.656 187.444 23.544 187.828 23.32C188.223 23.096 188.506 22.7653 188.676 22.328L189.012 23.528C188.82 24.0293 188.474 24.4187 187.972 24.696C187.482 24.9733 186.858 25.112 186.1 25.112Z" fill="white"/>
<path d="M26.2864 16.8637H22.1864L25.9987 6.73505C26.1906 6.2048 25.5912 5.75405 25.2075 6.15172L13.1475 19.4887C12.8357 19.8335 13.0516 20.3902 13.4831 20.3902H17.5832L13.7708 30.5454C13.579 31.0756 14.1784 31.5264 14.562 31.1287L26.6221 17.7917C26.9338 17.447 26.7181 16.8636 26.2864 16.8636V16.8637Z" fill="white"/>
</svg>
