<svg width="1680" height="493" viewBox="0 0 1680 493" fill="none" xmlns="http://www.w3.org/2000/svg">
<mask id="mask0_28_612" style="mask-type:alpha" maskUnits="userSpaceOnUse" x="0" y="0" width="1680" height="603">
<rect y="0.000488281" width="1680" height="602" fill="#F3F3F3"/>
</mask>
<g mask="url(#mask0_28_612)">
<rect y="0.000488281" width="1680" height="602" fill="#F3F3F3"/>
<g opacity="0.5">
<path d="M-150.643 850.169L-205.457 775.717L-18.3346 633.913C29.1732 597.911 87.4759 582.726 146.019 591.206C146.442 591.267 147.076 591.359 147.499 591.42C206.614 600.42 258.331 632.196 293.306 681.238C307.637 701.474 329.035 714.637 353.552 718.188C353.763 718.219 353.974 718.25 354.186 718.28C378.279 721.77 402.259 715.616 421.893 700.738C461.402 670.797 470.385 613.244 441.752 572.559L398.788 511.638C341.872 433.819 357.919 323.029 434.967 264.832C472.779 236.177 518.955 224.268 565.39 231.431C611.855 238.38 652.662 263.544 680.094 302.086C728.561 369.71 791.72 458.06 843.792 530.583C882.553 584.769 958.03 597.013 1012.05 557.797L1015.65 555.256C1043.85 534.836 1062.28 504.467 1067.67 470.241C1073.02 436.23 1064.58 402.188 1044.2 374.513L994.585 307.378C966.457 269.173 954.706 222.181 961.534 175.036C968.362 127.891 992.963 86.165 1030.56 57.4797L1036.62 52.8876C1074.68 24.0492 1121.1 11.9564 1167.41 18.4459C1167.62 18.4765 1167.84 18.5071 1168.05 18.5377C1214.12 25.211 1255.02 49.732 1282.76 87.6618L1285.46 91.3354C1306.92 120.479 1338.29 139.245 1373.59 144.357C1409.1 149.5 1444.51 140.407 1473.14 118.518L1701.89 -54.4508L1756.71 20.0007L1528.62 192.847C1480.14 229.584 1420.51 245.014 1360.91 236.381C1301.1 227.718 1248.29 196.003 1212.23 147.022L1209.53 143.349C1196.36 125.47 1177.14 113.715 1155.15 110.532L1154.94 110.501C1132.75 107.287 1110.31 113.226 1091.89 127.186L1085.83 131.778C1067.9 145.371 1056.16 165.331 1052.87 188.046C1049.61 210.547 1055.2 233.017 1068.72 251.385L1118.16 318.275C1153.53 366.063 1167.87 425.024 1158.67 484.078C1149.43 543.346 1117.72 595.42 1069.22 630.84L1065.62 633.381C1019.57 666.75 963.479 680.068 907.807 671.129C851.924 662.16 803.042 631.67 769.839 585.29C717.798 512.553 654.608 424.418 606.141 356.793C593.04 338.486 573.812 326.731 551.863 323.333C529.883 320.149 507.96 325.507 490.023 339.1C472.329 352.508 460.865 372.071 457.668 394.143C454.471 416.215 459.914 438.226 473.077 456.105L473.618 456.839L516.942 518.25C544.854 557.955 556.176 606.416 548.739 654.785C541.302 703.155 515.7 745.831 477.13 775.251C437.863 805.007 389.661 817.498 341.262 810.488C340.839 810.427 340.417 810.366 339.994 810.305C291.234 802.805 248.227 776.447 219.352 735.946C198.89 707.383 168.602 688.556 133.972 683.322C133.761 683.291 133.338 683.23 133.127 683.199C98.8884 678.24 64.5967 687.057 36.9336 708.212L-150.643 850.169Z" fill="#ECEDED"/>
<path d="M-145.496 792.279L-149.283 787.136L-128.922 771.706L-125.136 776.849L-145.496 792.279ZM-104.533 761.236L-108.319 756.093L-87.9587 740.664L-84.1722 745.807L-104.533 761.236ZM-63.8118 730.377L-67.5983 725.234L-47.2378 709.805L-43.4513 714.948L-63.8118 730.377ZM347.257 767.599C339.648 766.497 331.921 764.721 324.499 762.334L326.487 756.058C334.332 758.507 342.482 760.344 350.755 761.323L350.035 767.783C348.948 767.844 348.102 767.721 347.257 767.599ZM375.801 768.67L375.433 762.272C383.712 761.721 391.874 760.496 399.948 758.384L401.403 764.721C393.118 766.802 384.503 768.18 375.801 768.67ZM300.522 752.078C292.926 747.915 285.664 742.925 278.888 737.568L282.865 732.455C289.219 737.751 296.3 742.496 303.505 746.384L300.522 752.078ZM-22.8484 699.335L-26.635 694.192L-6.2745 678.762L-2.48798 683.905L-22.8484 699.335ZM426.21 755.842L423.604 749.995C431.019 746.475 438.316 742.281 445.071 737.352L448.827 742.709C441.617 747.791 434.078 752.169 426.21 755.842ZM260.41 719.139C258.216 716.414 255.841 713.445 253.888 710.536C251.003 706.618 247.907 702.669 244.78 698.934L249.72 694.617C253.059 698.383 256.124 702.546 259.19 706.71C261.173 709.404 263.337 712.342 265.563 714.853L260.41 719.139ZM18.0528 668.721L14.5087 663.394C21.6872 658.527 29.2263 654.149 37.126 650.261L39.943 656.138C32.3167 659.628 25.0199 663.823 18.0528 668.721ZM468.379 725.412L463.865 720.82C469.688 714.881 474.971 708.207 479.439 701.197L484.741 704.809C480.031 712.003 474.476 719.075 468.379 725.412ZM227.085 681.056C220.763 675.545 214.167 670.433 207.055 665.902L210.429 660.484C217.721 665.259 224.74 670.433 231.243 676.188L227.085 681.056ZM62.878 646.771L60.9685 640.587C69.1047 638.046 77.6015 635.994 86.2166 634.617L87.2186 641.107C79.0883 642.117 70.8028 644.199 62.878 646.771ZM185.048 653.963C177.569 650.473 169.575 647.565 161.699 645.331L163.476 639.024C171.774 641.32 179.949 644.473 187.85 648.024L185.048 653.963ZM112.15 638.81L112.025 632.229C120.665 632.167 129.243 632.535 137.908 633.79L136.977 640.218C128.946 639.055 120.579 638.719 112.15 638.81ZM496.976 681.42L491.064 679.032C494.326 671.41 496.805 663.236 498.438 654.939L504.716 656.286C503.052 664.797 500.512 673.399 496.976 681.42ZM501.647 629.806C501.8 621.295 501.289 612.907 500.113 604.641L506.521 603.6C507.847 612.325 508.507 621.173 508.111 629.867L501.647 629.806ZM493.923 580.334C491.174 572.497 487.549 564.752 483.407 557.589L488.858 554.221C493.149 561.844 496.954 569.834 499.853 578.13L493.923 580.334ZM917.395 628.76C913.168 628.148 908.76 627.291 904.564 626.464L905.918 620.097C914.068 621.934 922.31 623.127 930.646 623.678L930.138 630.168C925.88 629.77 921.622 629.373 917.395 628.76ZM956.058 629.984L955.479 623.556C963.789 622.79 971.982 621.351 980.025 619.453L981.481 625.79C973.226 627.658 964.791 629.28 956.058 629.984ZM879.792 618.719C871.829 615.597 863.959 611.832 856.393 607.454L859.587 601.79C866.761 605.893 874.42 609.627 881.961 612.689L879.792 618.719ZM1006.4 617.585L1004.04 611.555C1011.64 608.279 1019.29 604.574 1026.41 600.135L1029.71 605.646C1022.14 610.238 1014.45 614.157 1006.4 617.585ZM835.032 592.545C828.287 586.974 822.026 581.035 816.281 574.514L821.011 570.167C826.576 576.443 832.656 582.137 839.221 587.463L835.032 592.545ZM469.169 536.71L454.296 515.74L459.598 511.913L474.47 532.884L469.169 536.71ZM1050.86 590.767L1046.86 585.594C1053.43 580.42 1059.68 574.542 1065.29 568.572L1069.84 572.95C1064.16 579.348 1057.71 585.196 1050.86 590.767ZM800.259 554.034L785.355 533.278L790.445 529.421L805.349 550.177L800.259 554.034ZM439.666 494.586L433.566 486.045C430.501 481.882 427.678 477.535 425.067 473.218L430.729 469.881C433.129 474.167 435.771 478.27 438.656 482.188L444.725 490.943L439.666 494.586ZM770.24 512.492L755.336 491.736L760.427 487.879L775.33 508.634L770.24 512.492ZM1086.38 552.592L1081.11 548.765C1086 541.816 1090.29 534.561 1093.97 526.999L1099.61 529.785C1095.86 537.775 1091.51 545.459 1086.38 552.592ZM414.315 449.126C411.628 440.86 409.668 432.043 408.554 423.349L414.931 422.523C415.896 430.758 417.918 439.146 420.455 446.952L414.315 449.126ZM740.464 470.766L725.56 450.01L730.65 446.153L745.554 466.908L740.464 470.766ZM1109.58 505.631L1103.4 503.641C1106.05 495.712 1108.11 487.477 1109.32 479.119L1115.63 480.252C1114.39 488.824 1112.3 497.273 1109.58 505.631ZM407.84 396.991C408.094 393.746 408.348 390.501 408.814 387.286C409.621 381.715 410.819 376.419 412.26 370.939L418.477 372.714C417.098 377.766 415.899 383.062 415.154 388.205C414.72 391.205 414.465 394.45 414.242 397.481L407.84 396.991ZM710.476 429.009L695.572 408.254L700.662 404.396L715.566 425.152L710.476 429.009ZM1112.11 453.924C1112.26 445.414 1111.96 437.056 1110.81 428.576L1117.19 427.75C1118.31 436.444 1118.76 445.261 1118.57 453.985L1112.11 453.924ZM680.7 387.283L665.796 366.528L670.886 362.67L685.79 383.426L680.7 387.283ZM427.479 349.295L421.872 346.295C425.83 338.335 430.571 330.927 435.884 324.039L440.914 328.049C435.663 334.508 431.164 341.733 427.479 349.295ZM650.712 345.527L640.465 331.353C638.843 329.149 637.4 327.19 635.777 324.985L640.687 320.883C642.31 323.087 644.144 325.322 645.767 327.526L656.013 341.7L650.712 345.527ZM1105.78 403.779C1103.48 395.789 1100.55 387.707 1097.14 379.993L1102.92 377.329C1106.51 385.289 1109.41 393.585 1111.85 402.034L1105.78 403.779ZM458.023 309.742L453.783 304.752C455.995 302.884 458.208 301.017 460.6 299.394C465.206 295.904 470.203 292.69 475.169 289.69L478.228 295.384C473.504 298.2 468.75 301.231 464.387 304.537C462.205 306.191 459.993 308.058 458.023 309.742ZM618.264 307.352C611.91 302.056 604.798 297.525 597.593 293.638L600.575 287.943C608.172 292.107 615.676 296.913 622.21 302.454L618.264 307.352ZM501.045 285.342L499.135 279.158C507.514 276.434 515.98 274.597 524.533 273.648L525.323 280.107C517.224 280.903 508.97 282.771 501.045 285.342ZM574.579 284.178C566.703 281.943 558.523 280.321 550.218 279.556L550.727 273.066C559.454 273.892 568.088 275.362 576.356 277.872L574.579 284.178ZM1085.23 357.921C1083.13 354.553 1080.99 351.4 1078.65 348.216L1070.54 337.195L1075.63 333.338L1083.74 344.359C1086.08 347.543 1088.4 350.941 1090.71 354.339L1085.23 357.921ZM1055.39 316.623L1040.24 296.051L1045.33 292.194L1060.48 312.766L1055.39 316.623ZM1024.95 275.02C1020.17 267.764 1015.91 259.927 1012.77 251.815L1018.73 249.396C1021.94 257.08 1025.8 264.642 1030.4 271.652L1024.95 275.02ZM1005.2 226.651C1003.42 218.079 1002.76 209.232 1002.73 200.476L1009.2 200.537C1009.28 208.864 1010.01 217.283 1011.61 225.61L1005.2 226.651ZM1011.56 175.281L1005.28 173.934C1006.98 165.209 1009.49 156.821 1012.84 148.555L1018.75 150.943C1015.67 158.811 1013.19 166.985 1011.56 175.281ZM1371.98 194.227L1372.7 187.767C1380.97 188.747 1389.34 189.084 1397.55 188.961L1397.68 195.543C1389.25 195.635 1380.67 195.268 1371.98 194.227ZM1346.56 189.451C1338.26 187.155 1330.02 184.431 1322.09 181.094L1324.68 175.124C1332.4 178.431 1340.22 181.094 1348.33 183.145L1346.56 189.451ZM1423.73 192.971L1422.73 186.481C1430.92 185.042 1439.21 182.96 1447.13 180.389L1449.04 186.573C1440.66 189.297 1432.16 191.348 1423.73 192.971ZM1299 169.216C1291.67 164.655 1284.41 159.665 1277.88 154.124L1281.85 149.012C1288.21 154.308 1295.26 159.267 1302.19 163.553L1299 169.216ZM1030.35 128.993L1025.04 125.381C1029.79 117.972 1035.52 111.145 1041.62 104.808L1046.13 109.4C1040.31 115.339 1035.03 122.013 1030.35 128.993ZM1472.88 176.898L1470.07 171.021C1477.51 167.286 1484.81 163.092 1491.74 158.408L1495.29 163.734C1488.32 168.633 1480.78 173.01 1472.88 176.898ZM1258.88 136.277C1254.4 131.47 1250.19 126.266 1246.44 120.909L1242.83 116.011L1247.92 112.153L1251.53 117.051C1255.31 122.194 1259.34 127.154 1263.64 131.715L1258.88 136.277ZM1065.32 93.1443L1061.53 88.0013L1062.26 87.4502C1069.04 82.3071 1076.16 77.8681 1083.61 74.1331L1086.42 80.0109C1079.43 83.5927 1072.56 87.8481 1066.04 92.5933L1065.32 93.1443ZM1516.07 148.366L1512.29 143.223L1532.65 127.794L1536.43 132.937L1516.07 148.366ZM1225.83 97.7958C1219.72 92.316 1212.88 87.3874 1205.71 83.2852L1208.9 77.6217C1216.47 81.9993 1223.49 87.1729 1229.99 92.9282L1225.83 97.7958ZM1109.75 70.9184L1108.08 64.5508C1116.4 62.2547 1125.05 60.6627 1133.75 60.1728L1134.12 66.571C1126.02 67.3671 1117.82 68.806 1109.75 70.9184ZM1183.27 72.8157C1176.06 70.4585 1168.76 68.7442 1161.36 67.6728C1160.73 67.581 1159.88 67.4585 1159.25 67.3667L1159.97 60.9072C1160.81 61.0297 1161.45 61.1215 1162.29 61.244C1170.11 62.3766 1177.84 64.1521 1185.44 66.7848L1183.27 72.8157ZM1557.04 117.324L1553.25 112.181L1573.61 96.7511L1577.4 101.894L1557.04 117.324ZM1597.97 86.4953L1594.18 81.3523L1614.54 65.9228L1618.33 71.0659L1597.97 86.4953ZM1638.72 55.4221L1634.93 50.2791L1655.29 34.8497L1659.08 39.9927L1638.72 55.4221ZM1679.68 24.3795L1675.9 19.2365L1696.26 3.80707L1700.04 8.9501L1679.68 24.3795Z" fill="white"/>
</g>
</g>
</svg>
