<svg width="21" height="23" viewBox="0 0 21 23" fill="none" xmlns="http://www.w3.org/2000/svg">
<path d="M17.3995 0H3.6005C1.56022 0 0 1.495 0 3.45V10.35H12.1188L9.35837 7.705C8.8783 7.245 8.8783 6.555 9.35837 6.095C9.83843 5.635 10.5585 5.635 11.0386 6.095L15.8393 10.695C16.3193 11.155 16.3193 11.845 15.8393 12.305L11.0386 16.905C10.5585 17.365 9.83843 17.365 9.35837 16.905C8.8783 16.445 8.8783 15.755 9.35837 15.295L12.1188 12.65H0V19.55C0 21.505 1.56022 23 3.6005 23H17.3995C19.4398 23 21 21.505 21 19.55V3.45C21 1.495 19.4398 0 17.3995 0Z" fill="#728D9B"/>
</svg>
