<svg width="1680" height="660" viewBox="0 0 1680 660" fill="none" xmlns="http://www.w3.org/2000/svg">
<rect width="1680" height="660" fill="#F5F5F5"/>
<g clip-path="url(#clip0_0_1)">
<rect width="1680" height="4023" transform="translate(0 -111)" fill="white"/>
<g filter="url(#filter0_d_0_1)">
<mask id="mask0_0_1" style="mask-type:alpha" maskUnits="userSpaceOnUse" x="-24" y="-68" width="1728" height="728">
<rect x="-24" y="-68" width="1728" height="728" rx="20" fill="url(#paint0_linear_0_1)"/>
</mask>
<g mask="url(#mask0_0_1)">
<rect x="-27" width="1731" height="660" rx="20" fill="url(#paint1_linear_0_1)"/>
<path opacity="0.42" d="M69.5188 -66.0089C89.5485 17.5509 137.18 93.7528 206.199 152.654C275.217 211.555 362.418 250.421 456.423 264.179C459.88 264.795 463.444 264.733 466.872 263.998C470.301 263.264 473.511 261.873 476.285 259.922C479.059 257.971 481.331 255.505 482.945 252.694C484.56 249.882 485.478 246.791 485.638 243.631C493.64 134.308 461.766 25.6186 394.834 -66.0089H496.692C496.692 -66.0089 520.38 -22.7868 533.014 4.84695C533.612 5.88787 534.517 6.76087 535.632 7.37041C536.746 7.97996 538.026 8.30265 539.331 8.30265C540.636 8.30265 541.916 7.97996 543.03 7.37041C544.144 6.76087 545.05 5.88787 545.648 4.84695C553.954 -19.8443 565.344 -43.6138 579.6 -66.0089H651.454C588.021 28.0964 562.907 139.026 580.39 247.883C580.702 249.916 581.528 251.858 582.804 253.56C584.081 255.263 585.774 256.681 587.755 257.707C589.736 258.733 591.952 259.338 594.234 259.477C596.515 259.617 598.802 259.286 600.92 258.511L874.121 130.97V290.396C798.385 289.468 723.294 302.993 653.823 330.075C650.881 331.155 648.273 332.855 646.22 335.033C644.168 337.211 642.732 339.801 642.034 342.584C641.336 345.366 641.398 348.259 642.213 351.016C643.028 353.772 644.573 356.312 646.716 358.418C687.776 403.057 798.32 519.261 875.7 543.352V634.047L796.74 586.574C795.772 585.869 794.594 585.438 793.353 585.333C792.112 585.228 790.864 585.456 789.767 585.986C788.67 586.516 787.772 587.326 787.186 588.313C786.6 589.3 786.353 590.421 786.476 591.534C783.253 638.598 797.104 685.333 825.956 724.743H702.778C702.778 724.743 750.944 574.528 580.39 388.177C577.944 385.63 574.914 383.586 571.507 382.184C568.101 380.783 564.397 380.058 560.65 380.058C556.903 380.058 553.199 380.783 549.793 382.184C546.386 383.586 543.356 385.63 540.91 388.177C493.602 433.373 456.918 486.653 433.042 544.841C409.167 603.029 398.59 664.934 401.94 726.868H297.713C301.354 684.061 312.271 642.006 330.087 602.162C330.087 597.911 330.087 592.951 321.401 595.077C249.983 625.653 187.724 671.077 139.793 727.577H-12.5996V592.951C-12.5996 592.951 319.032 619.167 461.16 354.166C462.211 352.269 462.821 350.199 462.95 348.084C463.08 345.968 462.728 343.851 461.915 341.861C461.102 339.872 459.845 338.052 458.222 336.513C456.599 334.974 454.644 333.748 452.475 332.91C386.938 309.527 136.635 235.837 -11.0204 352.749V225.209H112.157C113.86 225.134 115.5 224.612 116.874 223.707C118.248 222.802 119.295 221.554 119.884 220.118C120.473 218.683 120.579 217.124 120.188 215.635C119.797 214.147 118.926 212.794 117.684 211.746C71.7752 181.698 28.7256 148.281 -11.0204 111.839V-68.1345H67.9396L69.5188 -66.0089Z" fill="#67B2DB"/>
<rect opacity="0.59" width="1336.96" height="927.065" transform="matrix(0.963137 -0.269012 0.33566 0.941983 -498.58 345.757)" fill="url(#paint2_radial_0_1)"/>
<rect opacity="0.59" width="1722.6" height="1194.48" transform="matrix(0.963137 -0.269012 0.33566 0.941983 -387.785 -111.334)" fill="url(#paint3_radial_0_1)"/>
<rect opacity="0.59" width="1722.6" height="1194.48" transform="matrix(0.963137 -0.269012 0.33566 0.941983 -1000.77 385.527)" fill="url(#paint4_radial_0_1)"/>
<path opacity="0.12" d="M951.441 709.011C1027.02 720.688 1104.36 713.315 1173.39 687.852C1242.41 662.389 1299.9 620.02 1338.37 566.272C1339.88 564.327 1340.85 562.122 1341.22 559.807C1341.58 557.492 1341.34 555.123 1340.51 552.86C1339.67 550.598 1338.27 548.497 1336.38 546.699C1334.49 544.902 1332.17 543.452 1329.58 542.447C1240.51 506.175 1140.54 494.558 1044.76 509.352L1073.98 446.838C1073.98 446.838 1116.9 444.698 1143.62 444.872C1144.66 444.803 1145.65 444.498 1146.48 443.989C1147.3 443.48 1147.94 442.787 1148.32 441.986C1148.69 441.185 1148.79 440.307 1148.6 439.448C1148.41 438.59 1147.94 437.783 1147.24 437.118C1128.99 424.937 1112.39 411.128 1097.77 395.954L1118.38 351.854C1178.82 417.781 1264.32 465.016 1360.31 485.514C1362.1 485.905 1363.96 485.956 1365.75 485.661C1367.54 485.366 1369.21 484.733 1370.63 483.812C1372.06 482.89 1373.2 481.704 1373.97 480.343C1374.74 478.983 1375.12 477.485 1375.08 475.963L1346.87 271.701L1480.1 317.435C1457.6 363.651 1447.36 413.617 1450.07 464.023C1450.12 466.138 1450.8 468.227 1452.03 470.111C1453.26 471.996 1455.01 473.62 1457.14 474.847C1459.26 476.073 1461.7 476.865 1464.24 477.156C1466.77 477.446 1469.34 477.226 1471.71 476.515C1520.8 464.121 1649.62 429.61 1691.95 389.03L1767.74 415.047L1705.42 449.889C1704.55 450.281 1703.85 450.881 1703.41 451.613C1702.97 452.344 1702.8 453.175 1702.93 454.001C1703.06 454.826 1703.48 455.609 1704.13 456.252C1704.79 456.895 1705.66 457.368 1706.62 457.612C1745.03 473.091 1788.06 477.997 1829.27 471.595L1793.93 547.194C1793.93 547.194 1682.22 474.541 1477.56 525.759C1474.73 526.53 1472.15 527.803 1470 529.492C1467.85 531.18 1466.18 533.245 1465.11 535.545C1464.03 537.845 1463.58 540.326 1463.77 542.819C1463.96 545.312 1464.8 547.758 1466.23 549.99C1490.43 591.989 1524.43 629.788 1566.21 661.134C1607.99 692.479 1656.69 716.729 1709.41 732.439L1679.51 796.408C1644.78 781.894 1612.77 763.129 1584.58 740.765C1581.03 739.545 1576.88 738.123 1576.17 744.063C1581.23 796.667 1601.33 847.908 1634.8 893.533L1591.09 987.062L1478.58 948.443C1478.58 948.443 1595.62 752.428 1414.93 589.179C1413.65 587.989 1412.09 587.022 1410.36 586.335C1408.63 585.649 1406.76 585.257 1404.86 585.186C1402.97 585.114 1401.09 585.363 1399.33 585.918C1397.58 586.472 1396 587.321 1394.67 588.411C1356.33 621.926 1222.95 754.408 1278.29 878.568L1171.71 841.981L1207.04 766.382C1207.47 765.316 1207.5 764.159 1207.14 763.056C1206.78 761.954 1206.04 760.953 1205.01 760.18C1203.98 759.406 1202.7 758.894 1201.35 758.707C1199.99 758.52 1198.61 758.667 1197.38 759.128C1159.1 778.685 1118.82 795.52 1076.97 809.46L926.56 757.831L949.211 709.37L951.441 709.011Z" fill="#B5E1FA"/>
</g>
</g>
</g>
<defs>
<filter id="filter0_d_0_1" x="-84" y="-111" width="1848" height="848" filterUnits="userSpaceOnUse" color-interpolation-filters="sRGB">
<feFlood flood-opacity="0" result="BackgroundImageFix"/>
<feColorMatrix in="SourceAlpha" type="matrix" values="0 0 0 0 0 0 0 0 0 0 0 0 0 0 0 0 0 0 127 0" result="hardAlpha"/>
<feOffset dy="17"/>
<feGaussianBlur stdDeviation="30"/>
<feComposite in2="hardAlpha" operator="out"/>
<feColorMatrix type="matrix" values="0 0 0 0 0.125 0 0 0 0 0.125 0 0 0 0 0.125 0 0 0 0.11 0"/>
<feBlend mode="normal" in2="BackgroundImageFix" result="effect1_dropShadow_0_1"/>
<feBlend mode="normal" in="SourceGraphic" in2="effect1_dropShadow_0_1" result="shape"/>
</filter>
<linearGradient id="paint0_linear_0_1" x1="751.97" y1="-68" x2="779.395" y2="662.276" gradientUnits="userSpaceOnUse">
<stop stop-color="#238CC6"/>
<stop offset="1" stop-color="#439ACA"/>
</linearGradient>
<linearGradient id="paint1_linear_0_1" x1="750.317" y1="6.55697e-07" x2="772.825" y2="662.232" gradientUnits="userSpaceOnUse">
<stop stop-color="#4B9FCE"/>
<stop offset="1" stop-color="#3CA9E4"/>
</linearGradient>
<radialGradient id="paint2_radial_0_1" cx="0" cy="0" r="1" gradientUnits="userSpaceOnUse" gradientTransform="translate(668.478 463.532) rotate(53.2129) scale(328.422 429.681)">
<stop stop-color="#0076B7"/>
<stop offset="1" stop-color="#139BD6" stop-opacity="0"/>
</radialGradient>
<radialGradient id="paint3_radial_0_1" cx="0" cy="0" r="1" gradientUnits="userSpaceOnUse" gradientTransform="translate(861.301 597.239) rotate(53.2129) scale(423.156 553.623)">
<stop stop-color="#75CEFF"/>
<stop offset="1" stop-color="#ADE6FF" stop-opacity="0"/>
</radialGradient>
<radialGradient id="paint4_radial_0_1" cx="0" cy="0" r="1" gradientUnits="userSpaceOnUse" gradientTransform="translate(861.301 597.239) rotate(53.2129) scale(423.156 553.623)">
<stop stop-color="#75CEFF"/>
<stop offset="1" stop-color="#ADE6FF" stop-opacity="0"/>
</radialGradient>
<clipPath id="clip0_0_1">
<rect width="1680" height="4023" fill="white" transform="translate(0 -111)"/>
</clipPath>
</defs>
</svg>
