<svg width="130" height="58" viewBox="0 0 130 58" fill="none" xmlns="http://www.w3.org/2000/svg">
<rect width="130" height="58" rx="10" fill="#439ACA"/>
<path d="M71.5447 36.3781C71.5447 38.9308 69.3803 41 66.7106 41C64.0409 41 61.877 38.9308 61.877 36.3781C61.877 33.8254 64.0409 31.7559 66.7106 31.7559C69.3803 31.7559 71.5447 33.8254 71.5447 36.3781Z" fill="white"/>
<path d="M98.131 36.3781C98.131 38.9308 95.9666 41 93.297 41C90.6273 41 88.4629 38.9308 88.4629 36.3781C88.4629 33.8254 90.6273 31.7559 93.297 31.7559C95.9666 31.7559 98.131 33.8254 98.131 36.3781Z" fill="white"/>
<path d="M52.2086 21.9332H67.9193C68.6444 21.9332 69.1279 21.4708 69.1279 20.7775C69.1279 20.0842 68.6444 19.6218 67.9193 19.6218L52.2086 19.6222C51.4835 19.6222 51 20.0846 51 20.7779C51.0004 21.4712 51.4835 21.9332 52.2086 21.9332V21.9332Z" fill="white"/>
<path d="M52.2086 26.5556H65.5016C66.2267 26.5556 66.7102 26.0933 66.7102 25.3999C66.7102 24.7066 66.2267 24.2443 65.5016 24.2443L52.2086 24.2446C51.4835 24.2446 51 24.707 51 25.4003C51.0004 26.0933 51.4835 26.5556 52.2086 26.5556V26.5556Z" fill="white"/>
<path d="M64.2936 30.0222C64.2936 29.3289 63.8101 28.8666 63.085 28.8666H52.2086C51.4835 28.8666 51 29.3289 51 30.0222C51 30.7156 51.4835 31.1779 52.2086 31.1779H63.085C63.8101 31.1779 64.2936 30.5999 64.2936 30.0222Z" fill="white"/>
<path d="M103.57 24.2449L99.0981 17.774C98.8566 17.4273 98.494 17.3116 98.1315 17.3116H92.0892L91.8477 18.1207L93.1769 24.3605L103.569 24.3602L103.57 24.2449Z" fill="white"/>
<path d="M106.349 28.1731L105.14 26.4398H92.0885C91.4844 26.4398 91.0009 25.9775 90.8799 25.5155L90.1548 22.2799L87.2549 30.1378V33.0268C88.5841 31.1778 90.7594 29.9068 93.2972 29.9068C97.2852 29.9068 100.548 33.0268 100.548 36.8401C100.548 37.1867 100.548 37.6491 100.427 37.9957L101.757 37.9953C102.24 37.9953 102.723 37.7644 102.844 37.302L106.47 29.2131C106.711 28.8665 106.59 28.5198 106.349 28.1732V28.1731Z" fill="white"/>
<path d="M56.4385 33.4889L55.834 36.7245C55.834 37.0712 55.834 37.4178 56.0755 37.6488C56.3171 37.8798 56.6796 38.1112 57.0422 38.1112H59.58C59.4594 37.6488 59.4594 37.3022 59.4594 36.9555C59.4594 35.6845 59.822 34.5289 60.4261 33.4889H56.4385Z" fill="white"/>
<path d="M88.7051 15H60.668C60.0639 15 59.5803 15.4623 59.4593 15.9243L59.2178 17.3109H67.7979C69.369 17.3109 70.8192 18.2352 71.4233 19.6219C72.1484 21.7018 70.8192 23.5508 68.8855 24.1285C69.0065 24.4751 69.1271 24.9375 69.1271 25.3994C69.1271 27.0171 67.9184 28.2884 66.4683 28.7504C66.5893 29.097 66.7098 29.5594 66.7098 30.0213C70.6978 30.0213 73.9607 33.1413 73.9607 36.9545C73.9607 37.3012 73.9607 37.7635 73.8397 38.1102L84.8373 38.111V30.0221C84.8373 29.9064 84.8373 29.7911 84.9583 29.6754L89.3088 18.0048L88.7051 15Z" fill="white"/>
<path d="M39.6706 25.6308H34.5262L39.3096 12.9223C39.5503 12.257 38.7982 11.6914 38.3169 12.1904L23.185 28.9244C22.7939 29.3569 23.0648 30.0554 23.6062 30.0554H28.7505L23.9671 42.7972C23.7264 43.4625 24.4785 44.0281 24.9599 43.5291L40.0917 26.7951C40.4829 26.3626 40.2122 25.6306 39.6706 25.6306V25.6308Z" fill="white"/>
</svg>
