<svg width="66" height="11" viewBox="0 0 66 11" fill="none" xmlns="http://www.w3.org/2000/svg">
<path d="M6.085 5.281C6.70033 5.42833 7.164 5.69267 7.476 6.074C7.79667 6.44667 7.957 6.92767 7.957 7.517C7.957 8.30567 7.66667 8.91667 7.086 9.35C6.514 9.78333 5.67767 10 4.577 10H0.417V0.899999H4.33C5.32667 0.899999 6.10233 1.10367 6.657 1.511C7.22033 1.90967 7.502 2.486 7.502 3.24C7.502 3.734 7.37633 4.15433 7.125 4.501C6.88233 4.84767 6.53567 5.10767 6.085 5.281ZM1.704 4.904H4.239C4.87167 4.904 5.35267 4.77833 5.682 4.527C6.02 4.27567 6.189 3.90733 6.189 3.422C6.189 2.93667 6.02 2.56833 5.682 2.317C5.344 2.057 4.863 1.927 4.239 1.927H1.704V4.904ZM4.551 8.973C5.94633 8.973 6.644 8.453 6.644 7.413C6.644 6.893 6.46633 6.51167 6.111 6.269C5.76433 6.01767 5.24433 5.892 4.551 5.892H1.704V8.973H4.551ZM12.2479 3.045C13.2012 3.045 13.9292 3.279 14.4319 3.747C14.9432 4.215 15.1989 4.91267 15.1989 5.84V10H14.0159V9.09C13.8079 9.41067 13.5089 9.65767 13.1189 9.831C12.7376 9.99567 12.2826 10.078 11.7539 10.078C10.9826 10.078 10.3629 9.89167 9.89491 9.519C9.43558 9.14633 9.20591 8.65667 9.20591 8.05C9.20591 7.44333 9.42691 6.958 9.86891 6.594C10.3109 6.22133 11.0129 6.035 11.9749 6.035H13.9509V5.788C13.9509 5.25067 13.7949 4.839 13.4829 4.553C13.1709 4.267 12.7116 4.124 12.1049 4.124C11.6976 4.124 11.2989 4.19333 10.9089 4.332C10.5189 4.462 10.1896 4.63967 9.92091 4.865L9.40091 3.929C9.75625 3.643 10.1809 3.42633 10.6749 3.279C11.1689 3.123 11.6932 3.045 12.2479 3.045ZM11.9619 9.116C12.4386 9.116 12.8502 9.012 13.1969 8.804C13.5436 8.58733 13.7949 8.284 13.9509 7.894V6.932H12.0269C10.9696 6.932 10.4409 7.28733 10.4409 7.998C10.4409 8.34467 10.5752 8.61767 10.8439 8.817C11.1126 9.01633 11.4852 9.116 11.9619 9.116ZM27.1312 3.11V10H17.3162V3.11H18.5642V8.908H21.6062V3.11H22.8542V8.908H25.8832V3.11H27.1312ZM35.6515 6.594C35.6515 6.68933 35.6428 6.815 35.6255 6.971H30.0355C30.1135 7.57767 30.3778 8.06733 30.8285 8.44C31.2878 8.804 31.8555 8.986 32.5315 8.986C33.3548 8.986 34.0178 8.70867 34.5205 8.154L35.2095 8.96C34.8975 9.324 34.5075 9.60133 34.0395 9.792C33.5801 9.98267 33.0645 10.078 32.4925 10.078C31.7645 10.078 31.1188 9.93067 30.5555 9.636C29.9921 9.33267 29.5545 8.91233 29.2425 8.375C28.9391 7.83767 28.7875 7.231 28.7875 6.555C28.7875 5.88767 28.9348 5.28533 29.2295 4.748C29.5328 4.21067 29.9445 3.79467 30.4645 3.5C30.9931 3.19667 31.5868 3.045 32.2455 3.045C32.9041 3.045 33.4891 3.19667 34.0005 3.5C34.5205 3.79467 34.9235 4.21067 35.2095 4.748C35.5041 5.28533 35.6515 5.90067 35.6515 6.594ZM32.2455 4.098C31.6475 4.098 31.1448 4.28 30.7375 4.644C30.3388 5.008 30.1048 5.48467 30.0355 6.074H34.4555C34.3861 5.49333 34.1478 5.021 33.7405 4.657C33.3418 4.28433 32.8435 4.098 32.2455 4.098ZM40.8188 3.11H42.0668V8.128L46.2918 3.11H47.4228V10H46.1748V4.982L41.9628 10H40.8188V3.11ZM57.6581 3.11V10H56.5271V4.969L53.9531 9.22H53.4071L50.8591 4.956V10H49.7151V3.11H51.0021L53.7061 7.764L56.4881 3.11H57.6581ZM65.4822 3.11V10H64.3642V7.816H62.3622H62.2192L60.7112 10H59.3722L61.0492 7.647C60.5292 7.491 60.1305 7.23533 59.8532 6.88C59.5759 6.516 59.4372 6.06533 59.4372 5.528C59.4372 4.73933 59.7059 4.14133 60.2432 3.734C60.7805 3.318 61.5215 3.11 62.4662 3.11H65.4822ZM60.7112 5.567C60.7112 6.02633 60.8542 6.36867 61.1402 6.594C61.4349 6.81067 61.8725 6.919 62.4532 6.919H64.3642V4.202H62.5052C61.3092 4.202 60.7112 4.657 60.7112 5.567Z" fill="#728D9B"/>
</svg>
