<svg width="32" height="33" viewBox="0 0 32 33" fill="none" xmlns="http://www.w3.org/2000/svg">
<path d="M27.7849 25.9568L27.7827 25.9546L23.6139 21.8163C25.2362 19.7377 26.0187 17.1227 25.8024 14.4908C25.5824 11.8141 24.3459 9.32341 22.3473 7.53094C20.3486 5.73848 17.7396 4.78047 15.0568 4.85393C12.374 4.9274 9.82126 6.02676 7.92354 7.92592C6.02582 9.82508 4.92734 12.3797 4.85393 15.0645C4.78052 17.7492 5.73776 20.3601 7.52886 22.3603C9.31996 24.3605 11.8088 25.5979 14.4836 25.8181C17.1136 26.0346 19.7269 25.2514 21.8039 23.6276L25.9385 27.7654C26.0593 27.8872 26.203 27.984 26.3613 28.05C26.5197 28.116 26.6895 28.15 26.861 28.15C27.0326 28.15 27.2024 28.116 27.3608 28.05C27.5191 27.984 27.6628 27.8872 27.7836 27.7654L27.7849 27.764C28.0191 27.5215 28.15 27.1975 28.15 26.8604C28.15 26.5232 28.0191 26.1993 27.7849 25.9568ZM15.3679 23.2771C13.8064 23.2771 12.2799 22.8137 10.9816 21.9455C9.68321 21.0773 8.67124 19.8433 8.07366 18.3995C7.47607 16.9557 7.31972 15.367 7.62436 13.8343C7.92901 12.3015 8.68098 10.8936 9.78515 9.78862C10.8893 8.68361 12.2961 7.9311 13.8276 7.62624C15.3591 7.32137 16.9466 7.47784 18.3892 8.07586C19.8319 8.67388 21.0649 9.68659 21.9325 10.986C22.8 12.2853 23.2631 13.813 23.2631 15.3757C23.2631 17.4713 22.4312 19.4811 20.9506 20.9629C19.4699 22.4446 17.4618 23.2771 15.3679 23.2771Z" fill="#728D9B" stroke="#728D9B" stroke-width="0.3"/>
</svg>
