<svg width="1679" height="549" viewBox="0 0 1679 549" fill="none" xmlns="http://www.w3.org/2000/svg">
<mask id="mask0_33_135" style="mask-type:alpha" maskUnits="userSpaceOnUse" x="0" y="0" width="1680" height="549">
<rect width="1680" height="549" fill="#439ACA"/>
</mask>
<g mask="url(#mask0_33_135)">
<rect width="1680" height="549" fill="#439ACA"/>
<rect x="-12" width="1692" height="549" fill="url(#paint0_linear_33_135)"/>
<path opacity="0.42" d="M-67.4215 51.7429C-21.9129 117.693 42.1832 168.437 116.504 197.356C190.824 226.274 271.918 232.023 349.204 213.853C352.085 213.28 354.806 212.085 357.179 210.352C359.552 208.619 361.521 206.387 362.953 203.81C364.385 201.232 365.245 198.37 365.474 195.419C365.703 192.467 365.296 189.496 364.282 186.709C331.062 89.4779 267.388 5.55716 182.886 -52.3688L261.259 -84.9669C261.259 -84.9669 295.053 -55.119 314.727 -35.2322C315.562 -34.5221 316.573 -34.0559 317.65 -33.8847C318.727 -33.7135 319.828 -33.8436 320.832 -34.2612C321.836 -34.6788 322.705 -35.3679 323.342 -36.2523C323.98 -37.1368 324.363 -38.1826 324.448 -39.2753C321.945 -63.3154 322.147 -87.5442 325.051 -111.5L380.337 -134.496C365.425 -32.703 386.057 71.3955 438.718 160.067C439.69 161.728 441.025 163.145 442.62 164.211C444.216 165.277 446.03 165.963 447.923 166.217C449.817 166.472 451.74 166.287 453.546 165.677C455.351 165.068 456.992 164.05 458.342 162.701L582.53 -131.548L725.64 -148.292C667.032 -124.858 568.522 162.057 524.824 207.742C522.949 209.618 521.555 211.926 520.76 214.469C519.965 217.011 519.793 219.714 520.259 222.347C520.724 224.98 521.813 227.465 523.433 229.591C525.054 231.718 527.157 233.422 529.565 234.56C577.235 260.076 888.725 358.331 956.942 354.429L843.358 427.666L727.176 384.123C726.178 383.823 725.115 383.826 724.123 384.133C723.131 384.439 722.253 385.035 721.599 385.846C720.946 386.656 720.546 387.644 720.451 388.687C720.356 389.729 720.57 390.779 721.065 391.703C735.537 433.491 818.606 522.073 854.999 546.967L702.999 546.967C702.999 546.967 687.6 388.349 489.25 281.558C486.45 280.134 483.383 279.334 480.257 279.211C477.131 279.087 474.02 279.644 471.137 280.844C468.254 282.043 465.665 283.856 463.549 286.16C461.432 288.464 459.837 291.203 458.873 294.192C438.752 348.471 429.716 406.349 432.305 464.379C434.893 522.409 449.052 579.402 473.938 631.963L393.742 665.319C381.125 627.084 374.377 587.172 373.734 546.967C372.202 543.285 370.416 538.99 364.499 543.611C320.561 592.945 289.017 652.206 272.489 716.472L155.233 765.243L106.743 648.661C106.743 648.661 371.353 565.231 385.261 290.263C385.386 288.283 385.11 286.296 384.447 284.422C383.785 282.549 382.751 280.828 381.409 279.365C380.067 277.903 378.445 276.729 376.642 275.915C374.839 275.102 372.892 274.666 370.922 274.635C312.074 275.36 55.4998 348.003 -16.0004 496.5L-24.4981 329.703L70.2785 290.282C71.5616 289.673 72.6357 288.696 73.3668 287.472C74.098 286.249 74.4539 284.833 74.3903 283.401C74.3267 281.97 73.8465 280.586 73.0093 279.422C72.1721 278.258 71.0152 277.365 69.6824 276.855C23.5355 265.527 -21.6246 250.366 -65.3322 231.529L-130.156 75.6775L-69.4022 50.4077L-67.4215 51.7429Z" fill="#73BEE7"/>
<rect opacity="0.59" width="1900.26" height="1311.76" transform="matrix(0.953976 -0.299884 0.301842 0.953358 -363 79.8587)" fill="url(#paint1_radial_33_135)"/>
<path opacity="0.34" d="M1002.6 71.619C1046.27 138.802 1108.94 191.299 1182.43 222.261C1255.92 253.223 1336.83 261.212 1414.59 245.185C1417.48 244.691 1420.23 243.573 1422.65 241.906C1425.07 240.239 1427.11 238.062 1428.61 235.525C1430.11 232.989 1431.05 230.151 1431.36 227.207C1431.67 224.263 1431.35 221.282 1430.41 218.468C1399.89 120.356 1338.56 34.7069 1255.69 -25.533L1334.94 -55.952C1334.94 -55.952 1367.89 -25.1812 1387.01 -4.75811C1387.82 -4.02521 1388.82 -3.53132 1389.89 -3.33036C1390.97 -3.1294 1392.07 -3.22912 1393.08 -3.61883C1394.1 -4.00854 1394.99 -4.67329 1395.65 -5.53976C1396.31 -6.40623 1396.72 -7.4411 1396.84 -8.53106C1395 -32.6311 1395.87 -56.845 1399.44 -80.7116L1455.34 -102.17C1437.62 -0.828378 1455.36 103.801 1505.55 193.894C1506.48 195.581 1507.77 197.035 1509.34 198.144C1510.9 199.254 1512.7 199.99 1514.58 200.297C1516.47 200.603 1518.4 200.472 1520.22 199.912C1522.04 199.353 1523.71 198.38 1525.1 197.069L1694.78 3.80641L1748.36 143.399C1689.13 165.204 1635.25 199.472 1590.31 243.932C1588.38 245.755 1586.92 248.023 1586.06 250.543C1585.2 253.063 1584.95 255.76 1585.34 258.405C1585.73 261.049 1586.75 263.564 1588.31 265.734C1589.87 267.904 1591.93 269.667 1594.31 270.871C1641.25 297.694 1766.31 366.429 1834.61 364.414L1865.09 443.826L1787.71 425.839C1786.72 425.512 1785.66 425.486 1784.65 425.765C1783.65 426.044 1782.76 426.615 1782.08 427.407C1781.41 428.199 1780.98 429.176 1780.86 430.215C1780.73 431.255 1780.92 432.31 1781.39 433.248C1794.7 475.419 1821.18 512.204 1856.88 538.094L1761.05 574.88C1761.05 574.88 1748.03 428.969 1552.71 316.735C1549.95 315.235 1546.9 314.35 1543.78 314.141C1540.66 313.931 1537.54 314.402 1534.62 315.521C1531.71 316.64 1529.07 318.381 1526.89 320.626C1524.71 322.87 1523.04 325.565 1521.99 328.526C1500.38 382.227 1489.75 439.834 1490.73 497.913C1491.71 555.992 1504.29 613.355 1527.71 666.583L1446.63 697.71C1435.07 659.141 1429.43 619.057 1429.9 578.85C1428.47 575.127 1426.8 570.784 1420.76 575.24C1375.47 623.34 1342.3 681.707 1324.01 745.492L1205.45 791.002L1160.2 673.124C1160.2 673.124 1427.01 597.041 1448.52 322.562C1448.7 320.587 1448.48 318.593 1447.87 316.702C1447.25 314.81 1446.27 313.062 1444.97 311.563C1443.67 310.063 1442.08 308.845 1440.3 307.982C1438.52 307.119 1436.58 306.63 1434.62 306.544C1375.77 305.642 1153.58 294.537 1078 441L1037.82 350.66L1133.65 313.874C1134.95 313.3 1136.05 312.353 1136.82 311.15C1137.58 309.947 1137.98 308.542 1137.95 307.109C1137.93 305.677 1137.49 304.28 1136.68 303.093C1135.88 301.906 1134.75 300.982 1133.43 300.436C1087.61 287.836 1042.89 271.433 999.72 251.394L808 -8.53113L934.93 -39.5806L1002.6 71.619Z" fill="#73BEE7"/>
</g>
<defs>
<linearGradient id="paint0_linear_33_135" x1="-12" y1="63.4652" x2="1651.42" y2="531.445" gradientUnits="userSpaceOnUse">
<stop stop-color="#4B9FCE"/>
<stop offset="0.265055" stop-color="#68B8E3"/>
<stop offset="1" stop-color="#45A6DA"/>
</linearGradient>
<radialGradient id="paint1_radial_33_135" cx="0" cy="0" r="1" gradientUnits="userSpaceOnUse" gradientTransform="translate(950.131 655.878) rotate(53.0892) scale(465.455 609.733)">
<stop stop-color="#0076B7"/>
<stop offset="1" stop-color="#139BD6" stop-opacity="0"/>
</radialGradient>
</defs>
</svg>
