<svg width="58" height="58" viewBox="0 0 58 58" fill="none" xmlns="http://www.w3.org/2000/svg">
<rect width="58" height="58" rx="10" transform="matrix(-1 0 0 1 58 0)" fill="white"/>
<path d="M27.0072 22.4949L27.0072 22.4949L27.0063 22.4939C26.5477 22.0353 25.8527 22.0353 25.3941 22.4939C24.9356 22.9525 24.9356 23.6475 25.3941 24.1061L30.1881 28.9L25.3941 33.6939C25.2853 33.8028 25.1977 33.9176 25.1381 34.0516C25.0783 34.1862 25.0502 34.3325 25.0502 34.5C25.0502 34.8341 25.1622 35.1241 25.3691 35.3311C25.576 35.538 25.8661 35.65 26.2002 35.65C26.3677 35.65 26.514 35.6219 26.6486 35.5621C26.7826 35.5025 26.8974 35.4149 27.0063 35.3061L32.6966 29.6157C32.8964 29.474 32.9764 29.218 32.9625 28.9667C32.9479 28.7052 32.8327 28.4205 32.6067 28.1944C32.6066 28.1942 32.6064 28.1941 32.6063 28.1939L27.0072 22.4949Z" fill="#505457" stroke="#505457" stroke-width="0.3"/>
</svg>
