<svg width="58" height="58" viewBox="0 0 58 58" fill="none" xmlns="http://www.w3.org/2000/svg">
<rect width="58" height="58" rx="10" fill="white"/>
<path d="M30.9928 22.4949L30.9928 22.4949L30.9937 22.4939C31.4523 22.0353 32.1473 22.0353 32.6059 22.4939C33.0644 22.9525 33.0644 23.6475 32.6059 24.1061L27.8119 28.9L32.6059 33.6939C32.7147 33.8028 32.8023 33.9176 32.8619 34.0516C32.9217 34.1862 32.9498 34.3325 32.9498 34.5C32.9498 34.8341 32.8378 35.1241 32.6309 35.3311C32.424 35.538 32.1339 35.65 31.7998 35.65C31.6323 35.65 31.486 35.6219 31.3514 35.5621C31.2174 35.5025 31.1026 35.4149 30.9937 35.3061L25.3034 29.6157C25.1036 29.474 25.0236 29.218 25.0375 28.9667C25.0521 28.7052 25.1673 28.4205 25.3933 28.1944C25.3934 28.1942 25.3936 28.1941 25.3937 28.1939L30.9928 22.4949Z" fill="#505457" stroke="#505457" stroke-width="0.3"/>
</svg>
