<svg width="375" height="1914" viewBox="0 0 375 1914" fill="none" xmlns="http://www.w3.org/2000/svg">
<rect x="-3" width="378" height="2164" fill="url(#paint0_linear_830_16)"/>
<path opacity="0.12" d="M-127.694 324.869C-69.8952 333.8 -10.7432 328.16 42.0436 308.687C94.8304 289.214 138.801 256.811 168.217 215.707C169.369 214.219 170.112 212.532 170.394 210.762C170.677 208.992 170.492 207.18 169.854 205.45C169.216 203.72 168.138 202.112 166.695 200.738C165.252 199.363 163.478 198.254 161.494 197.486C93.3788 169.746 16.9204 160.862 -56.3246 172.176L-33.9783 124.367C-33.9783 124.367 -1.15736 122.731 19.2756 122.863C20.072 122.811 20.8287 122.577 21.4627 122.188C22.0967 121.799 22.5838 121.269 22.8701 120.656C23.1564 120.044 23.2309 119.372 23.0858 118.716C22.9406 118.059 22.5814 117.442 22.0473 116.933C8.08882 107.618 -4.60403 97.057 -15.7895 85.4521L-0.0257884 51.7261C46.2026 102.145 111.59 138.269 184.998 153.945C186.366 154.244 187.789 154.283 189.157 154.057C190.525 153.832 191.803 153.348 192.893 152.643C193.983 151.938 194.856 151.031 195.446 149.991C196.036 148.951 196.326 147.805 196.295 146.641L174.718 -9.57276L275.445 -9.57276C258.236 25.7719 251.572 98.9606 253.64 137.51C253.684 139.127 254.199 140.725 255.14 142.166C256.082 143.607 257.422 144.849 259.048 145.787C260.673 146.725 262.535 147.331 264.476 147.553C266.417 147.775 268.379 147.607 270.195 147.063C307.733 137.584 406.253 111.192 438.626 80.1567L496.591 100.054L448.927 126.701C448.265 127 447.73 127.459 447.391 128.018C447.052 128.578 446.924 129.213 447.022 129.845C447.12 130.476 447.44 131.075 447.943 131.567C448.445 132.058 449.107 132.42 449.845 132.607C479.218 144.444 512.126 148.196 543.643 143.3L516.62 201.116C516.62 201.116 431.182 145.554 274.664 184.724C272.499 185.313 270.528 186.286 268.885 187.578C267.242 188.87 265.966 190.449 265.144 192.208C264.321 193.967 263.973 195.864 264.121 197.77C264.269 199.677 264.911 201.547 266.002 203.254C284.509 235.374 310.513 264.282 342.465 288.254C374.416 312.226 411.66 330.772 451.979 342.787L429.113 391.708C402.553 380.608 378.069 366.257 356.513 349.154C353.796 348.221 350.626 347.133 350.079 351.676C353.953 391.906 369.325 431.094 394.92 465.986L361.488 537.515L275.445 507.98C275.445 507.98 364.956 358.073 226.769 233.225C225.787 232.315 224.598 231.575 223.274 231.05C221.951 230.525 220.52 230.226 219.07 230.171C217.62 230.116 216.182 230.307 214.842 230.731C213.502 231.155 212.29 231.804 211.278 232.638C181.956 258.269 79.9462 359.588 122.274 454.542L40.76 426.561L67.7834 368.745C68.1093 367.93 68.1353 367.045 67.8582 366.202C67.5812 365.358 67.0132 364.593 66.2252 364.002C65.4371 363.41 64.4638 363.018 63.4266 362.875C62.3893 362.732 61.334 362.844 60.3918 363.197C31.1156 378.154 0.313594 391.029 -31.6967 401.689L-146.722 362.206L-129.399 325.144L-127.694 324.869Z" fill="#B5E1FA"/>
<rect opacity="0.59" width="887.623" height="661.465" transform="matrix(0.963137 -0.269012 0.33566 0.941983 -349.432 -42.5255)" fill="url(#paint1_radial_830_16)"/>
<defs>
<linearGradient id="paint0_linear_830_16" x1="166.743" y1="2.14989e-06" x2="1046.88" y2="1724.68" gradientUnits="userSpaceOnUse">
<stop stop-color="#4B9FCE"/>
<stop offset="1" stop-color="#3CA9E4"/>
</linearGradient>
<radialGradient id="paint1_radial_830_16" cx="0" cy="0" r="1" gradientUnits="userSpaceOnUse" gradientTransform="translate(443.812 330.733) rotate(55.1708) scale(228.624 292.392)">
<stop stop-color="#75CEFF"/>
<stop offset="1" stop-color="#ADE6FF" stop-opacity="0"/>
</radialGradient>
</defs>
</svg>
