<svg width="1679" height="1065" viewBox="0 0 1679 1065" fill="none" xmlns="http://www.w3.org/2000/svg">
<mask id="mask0_33_349" style="mask-type:alpha" maskUnits="userSpaceOnUse" x="0" y="0" width="1680" height="1065">
<rect width="1680" height="1065" fill="#439ACA"/>
</mask>
<g mask="url(#mask0_33_349)">
<rect y="-22" width="1680" height="1121" fill="url(#paint0_linear_33_349)"/>
<path opacity="0.42" d="M-87.0177 123.7C-34.1694 184.152 36.5272 227.018 115.848 246.706C195.169 266.394 279.43 261.989 357.637 234.066C360.562 233.129 363.266 231.59 365.563 229.553C367.86 227.517 369.696 225.031 370.946 222.266C372.196 219.501 372.831 216.521 372.806 213.532C372.781 210.542 372.097 207.613 370.802 204.944C327.871 111.57 254.669 35.369 162.261 -12.1417L240.311 -54.6747C240.311 -54.6747 277.86 -28.9707 299.942 -11.4884C300.867 -10.8808 301.953 -10.54 303.081 -10.5033C304.208 -10.4666 305.333 -10.7352 306.333 -11.2801C307.333 -11.8251 308.169 -12.6252 308.75 -13.5925C309.33 -14.5598 309.632 -15.6569 309.623 -16.7638C304.907 -40.5665 302.967 -64.8979 303.841 -89.2945L358.9 -119.298C352.526 -15.3107 383.065 86.5315 445.315 168.88C446.467 170.424 447.971 171.678 449.713 172.548C451.456 173.417 453.39 173.878 455.368 173.895C457.346 173.913 459.316 173.486 461.127 172.648C462.937 171.81 464.542 170.583 465.816 169.06L567.981 -141.704L714.296 -176.453C655.845 -145.592 579.55 154.594 538.471 205.906C536.701 208.024 535.466 210.513 534.87 213.164C534.275 215.814 534.337 218.547 535.051 221.13C535.765 223.713 537.111 226.069 538.972 227.999C540.834 229.929 543.158 231.376 545.745 232.215C597.241 251.832 927.653 311.328 997.759 298.856L886.947 386.574L763.096 357.466C762.038 357.29 760.941 357.427 759.944 357.859C758.946 358.291 758.092 358.999 757.489 359.894C756.886 360.789 756.561 361.83 756.555 362.888C756.55 363.946 756.863 364.972 757.457 365.837C776.109 405.942 869.755 484.387 909.549 504.795L752.568 523.862C752.568 523.862 722.598 366.67 508.277 284.419C505.259 283.342 502.02 282.924 498.781 283.193C495.542 283.461 492.379 284.41 489.507 285.975C486.635 287.54 484.123 289.684 482.142 292.26C480.16 294.837 478.756 297.785 478.025 300.905C462.058 357.88 457.859 417.076 465.678 474.967C473.496 532.857 493.173 588.255 523.536 637.862L443.67 681.384C427.248 644.61 416.74 605.417 412.511 565.164C410.603 561.663 408.377 557.578 402.676 562.956C361.672 617.959 334.35 681.365 322.979 747.91L206.206 811.545L145.788 700.674C145.788 700.674 411.672 583.785 401.652 306.196C401.606 304.195 401.144 302.236 400.294 300.439C399.443 298.643 398.223 297.046 396.708 295.747C395.192 294.448 393.412 293.474 391.478 292.884C389.544 292.295 387.495 292.102 385.457 292.317C324.745 300.427 66.2037 405.485 5.52862 563.424L-18.0387 397.162L76.3482 345.727C77.6193 344.954 78.642 343.839 79.2886 342.52C79.9352 341.201 80.1772 339.736 79.9846 338.308C79.792 336.88 79.1733 335.552 78.2054 334.489C77.2376 333.426 75.9636 332.676 74.5419 332.332C25.8781 326.756 -22.1064 317.212 -68.9169 303.797L-149.686 155.58L-89.1818 122.609L-87.0177 123.7Z" fill="#73BEE7"/>
<rect opacity="0.59" width="1900.26" height="859.109" transform="matrix(0.953976 -0.299884 0.301842 0.953358 -456 218.859)" fill="url(#paint1_radial_33_349)"/>
<rect opacity="0.59" width="1900.26" height="859.109" transform="matrix(0.953976 -0.299884 0.301842 0.953358 74 671.859)" fill="url(#paint2_radial_33_349)"/>
<path opacity="0.34" d="M1012.35 75.332C1055.75 142.688 1118.21 195.434 1191.58 226.688C1264.95 257.942 1345.82 266.253 1423.64 250.536C1426.54 250.054 1429.29 248.946 1431.72 247.289C1434.15 245.631 1436.19 243.463 1437.7 240.932C1439.21 238.401 1440.16 235.567 1440.48 232.625C1440.81 229.682 1440.49 226.7 1439.57 223.882C1409.44 125.649 1348.45 39.7568 1265.82 -20.8124L1345.19 -50.9159C1345.19 -50.9159 1378.02 -20.0142 1397.06 0.4848C1397.87 1.22094 1398.86 1.7188 1399.94 1.92402C1401.01 2.12924 1402.11 2.03392 1403.13 1.64825C1404.14 1.26258 1405.03 0.601368 1405.7 -0.262461C1406.37 -1.12629 1406.78 -2.15952 1406.9 -3.24901C1405.16 -27.3562 1406.13 -51.5664 1409.79 -75.4187L1465.77 -96.6545C1447.65 4.61585 1464.98 109.315 1514.81 199.607C1515.73 201.298 1517.02 202.757 1518.58 203.872C1520.14 204.988 1521.93 205.732 1523.82 206.046C1525.7 206.359 1527.63 206.236 1529.45 205.683C1531.28 205.131 1532.95 204.166 1534.34 202.86L1704.79 10.2737L1757.82 150.078C1698.5 171.647 1644.49 205.701 1599.36 249.981C1597.43 251.797 1595.97 254.06 1595.09 256.576C1594.22 259.092 1593.96 261.788 1594.34 264.435C1594.72 267.081 1595.73 269.599 1597.28 271.776C1598.84 273.952 1600.88 275.723 1603.26 276.936C1650.1 303.946 1774.88 373.178 1843.18 371.434L1873.35 450.968L1796.04 432.673C1795.05 432.341 1793.99 432.311 1792.99 432.586C1791.98 432.861 1791.09 433.429 1790.41 434.218C1789.73 435.008 1789.3 435.983 1789.17 437.022C1789.04 438.06 1789.22 439.116 1789.69 440.056C1802.83 482.28 1829.17 519.17 1864.76 545.202L1768.78 581.606C1768.78 581.606 1756.35 435.645 1561.47 322.635C1558.72 321.124 1555.68 320.227 1552.56 320.005C1549.44 319.783 1546.31 320.241 1543.39 321.349C1540.47 322.456 1537.83 324.187 1535.64 326.422C1533.45 328.658 1531.77 331.346 1530.71 334.303C1508.89 387.918 1498.02 445.482 1498.78 503.565C1499.53 561.647 1511.88 619.06 1535.09 672.381L1453.88 703.184C1442.48 664.57 1436.99 624.464 1437.62 584.259C1436.21 580.531 1434.56 576.181 1428.5 580.612C1383.02 628.532 1349.62 686.766 1331.07 750.478L1212.33 795.516L1167.55 677.459C1167.55 677.459 1434.67 602.438 1457.26 328.047C1457.45 326.073 1457.24 324.078 1456.63 322.184C1456.03 320.29 1455.05 318.538 1453.76 317.034C1452.46 315.529 1450.88 314.305 1449.1 313.435C1447.32 312.565 1445.39 312.068 1443.42 311.974C1384.58 310.838 1162.44 298.849 1086.28 445.01L1046.46 354.511L1142.44 318.106C1143.74 317.538 1144.84 316.595 1145.61 315.395C1146.38 314.195 1146.78 312.792 1146.76 311.359C1146.75 309.926 1146.31 308.528 1145.51 307.338C1144.71 306.148 1143.58 305.219 1142.27 304.667C1096.5 291.885 1051.84 275.304 1008.75 255.094L818.067 -5.59174L945.119 -36.136L1012.35 75.332Z" fill="#73BEE7"/>
<path opacity="0.34" d="M224.602 771.722C268.27 838.904 330.938 891.401 404.431 922.363C477.924 953.325 558.827 961.314 636.586 945.287C639.482 944.794 642.235 943.675 644.655 942.008C647.075 940.341 649.105 938.165 650.608 935.628C652.11 933.091 653.049 930.254 653.36 927.31C653.67 924.366 653.346 921.385 652.408 918.571C621.889 820.458 560.56 734.809 477.691 674.569L556.936 644.15C556.936 644.15 589.892 674.921 609.009 695.344C609.824 696.077 610.822 696.571 611.893 696.772C612.965 696.973 614.069 696.873 615.085 696.484C616.1 696.094 616.987 695.429 617.649 694.563C618.311 693.696 618.722 692.661 618.837 691.571C617.001 667.471 617.872 643.257 621.437 619.391L677.338 597.932C659.618 699.274 677.364 803.903 727.553 893.997C728.479 895.683 729.774 897.137 731.34 898.247C732.905 899.357 734.699 900.093 736.585 900.399C738.471 900.706 740.398 900.574 742.22 900.015C744.042 899.455 745.71 898.483 747.097 897.172L916.776 703.909L970.36 843.501C911.127 865.306 857.253 899.574 812.308 944.034C810.382 945.858 808.925 948.126 808.06 950.646C807.195 953.165 806.948 955.862 807.341 958.507C807.733 961.152 808.753 963.666 810.314 965.837C811.875 968.007 813.93 969.769 816.306 970.973C863.253 997.797 988.311 1066.53 1056.61 1064.52L1087.09 1143.93L1009.71 1125.94C1008.72 1125.61 1007.66 1125.59 1006.65 1125.87C1005.65 1126.15 1004.76 1126.72 1004.08 1127.51C1003.41 1128.3 1002.98 1129.28 1002.86 1130.32C1002.73 1131.36 1002.92 1132.41 1003.39 1133.35C1016.7 1175.52 1043.18 1212.31 1078.88 1238.2L983.046 1274.98C983.046 1274.98 970.029 1129.07 774.707 1016.84C771.948 1015.34 768.904 1014.45 765.783 1014.24C762.661 1014.03 759.536 1014.5 756.621 1015.62C753.705 1016.74 751.068 1018.48 748.889 1020.73C746.709 1022.97 745.039 1025.67 743.992 1028.63C722.379 1082.33 711.746 1139.94 712.729 1198.02C713.712 1256.09 726.29 1313.46 749.713 1366.69L668.626 1397.81C657.071 1359.24 651.429 1319.16 651.898 1278.95C650.469 1275.23 648.802 1270.89 642.759 1275.34C597.474 1323.44 564.304 1381.81 546.005 1445.59L427.446 1491.1L382.197 1373.23C382.197 1373.23 649.013 1297.14 670.517 1022.66C670.697 1020.69 670.475 1018.7 669.865 1016.8C669.255 1014.91 668.269 1013.16 666.968 1011.67C665.667 1010.17 664.078 1008.95 662.298 1008.08C660.518 1007.22 658.584 1006.73 656.615 1006.65C597.77 1005.74 375.578 994.639 300 1141.1L259.824 1050.76L355.654 1013.98C356.954 1013.4 358.055 1012.46 358.819 1011.25C359.584 1010.05 359.979 1008.64 359.955 1007.21C359.931 1005.78 359.489 1004.38 358.684 1003.2C357.88 1002.01 356.748 1001.08 355.43 1000.54C309.614 987.938 264.89 971.535 221.72 951.497L156.93 792L156.93 660.522L224.602 771.722Z" fill="#73BEE7"/>
</g>
<defs>
<linearGradient id="paint0_linear_33_349" x1="1.47478e-05" y1="107.589" x2="1749.61" y2="346.943" gradientUnits="userSpaceOnUse">
<stop stop-color="#4B9FCE"/>
<stop offset="0.265055" stop-color="#68B8E3"/>
<stop offset="1" stop-color="#45A6DA"/>
</linearGradient>
<radialGradient id="paint1_radial_33_349" cx="0" cy="0" r="1" gradientUnits="userSpaceOnUse" gradientTransform="translate(950.131 429.555) rotate(41.0866) scale(370.88 501.163)">
<stop stop-color="#0076B7"/>
<stop offset="1" stop-color="#139BD6" stop-opacity="0"/>
</radialGradient>
<radialGradient id="paint2_radial_33_349" cx="0" cy="0" r="1" gradientUnits="userSpaceOnUse" gradientTransform="translate(950.131 429.555) rotate(41.0866) scale(370.88 501.163)">
<stop stop-color="#0076B7"/>
<stop offset="1" stop-color="#139BD6" stop-opacity="0"/>
</radialGradient>
</defs>
</svg>
