<svg width="1680" height="534" viewBox="0 0 1680 534" fill="none" xmlns="http://www.w3.org/2000/svg">
<mask id="mask0_28_642" style="mask-type:alpha" maskUnits="userSpaceOnUse" x="0" y="0" width="1680" height="534">
<rect width="1680" height="534" fill="url(#paint0_linear_28_642)"/>
</mask>
<g mask="url(#mask0_28_642)">
<rect width="1680" height="534" fill="url(#paint1_linear_28_642)"/>
<path opacity="0.42" d="M-55.4215 51.7429C-9.91294 117.693 54.1832 168.437 128.504 197.356C202.824 226.274 283.918 232.023 361.204 213.853C364.085 213.28 366.806 212.085 369.179 210.352C371.552 208.619 373.521 206.387 374.953 203.81C376.385 201.232 377.245 198.37 377.474 195.419C377.703 192.467 377.296 189.496 376.282 186.709C343.062 89.4779 279.388 5.55716 194.886 -52.3688L273.259 -84.9669C273.259 -84.9669 307.053 -55.119 326.727 -35.2322C327.562 -34.5221 328.573 -34.0559 329.65 -33.8847C330.727 -33.7135 331.828 -33.8436 332.832 -34.2612C333.836 -34.6788 334.705 -35.3679 335.342 -36.2523C335.98 -37.1368 336.363 -38.1826 336.448 -39.2753C333.945 -63.3154 334.147 -87.5442 337.051 -111.5L392.337 -134.496C377.425 -32.703 398.057 71.3955 450.718 160.067C451.69 161.728 453.025 163.145 454.62 164.211C456.216 165.277 458.03 165.963 459.923 166.217C461.817 166.472 463.74 166.287 465.546 165.677C467.351 165.068 468.992 164.05 470.342 162.701L594.53 -131.548L737.64 -148.292C679.032 -124.858 580.522 162.057 536.824 207.742C534.949 209.618 533.555 211.926 532.76 214.469C531.965 217.011 531.793 219.714 532.259 222.347C532.724 224.98 533.813 227.465 535.433 229.591C537.054 231.718 539.157 233.422 541.565 234.56C589.235 260.076 900.725 358.331 968.942 354.429L855.358 427.666L739.176 384.123C738.178 383.823 737.115 383.826 736.123 384.133C735.131 384.439 734.253 385.035 733.599 385.846C732.946 386.656 732.546 387.644 732.451 388.687C732.356 389.729 732.57 390.779 733.065 391.703C747.537 433.491 830.606 522.073 866.999 546.967L714.999 546.967C714.999 546.967 699.6 388.349 501.25 281.558C498.45 280.134 495.383 279.334 492.257 279.211C489.131 279.087 486.02 279.644 483.137 280.844C480.254 282.043 477.665 283.856 475.549 286.16C473.432 288.464 471.837 291.203 470.873 294.192C450.752 348.471 441.716 406.349 444.305 464.379C446.893 522.409 461.052 579.402 485.938 631.963L405.742 665.319C393.125 627.084 386.377 587.172 385.734 546.967C384.202 543.285 382.416 538.99 376.499 543.611C332.561 592.945 301.017 652.206 284.489 716.472L167.233 765.243L118.743 648.661C118.743 648.661 383.353 565.231 397.261 290.263C397.386 288.283 397.11 286.296 396.447 284.422C395.785 282.549 394.751 280.828 393.409 279.365C392.067 277.903 390.445 276.729 388.642 275.915C386.839 275.102 384.892 274.666 382.922 274.635C324.074 275.36 67.4998 348.003 -4.00039 496.5L-12.4981 329.703L82.2785 290.282C83.5616 289.673 84.6357 288.696 85.3668 287.472C86.098 286.249 86.4539 284.833 86.3903 283.401C86.3267 281.97 85.8465 280.586 85.0093 279.422C84.1721 278.258 83.0152 277.365 81.6824 276.855C35.5355 265.527 -9.62457 250.366 -53.3322 231.529L-118.156 75.6775L-57.4022 50.4077L-55.4215 51.7429Z" fill="#73BEE7"/>
<rect opacity="0.59" width="1900.26" height="859.109" transform="matrix(0.953976 -0.299884 0.301842 0.953358 -444 266.859)" fill="url(#paint2_radial_28_642)"/>
</g>
<defs>
<linearGradient id="paint0_linear_28_642" x1="1.47478e-05" y1="61.7312" x2="1646.55" y2="534.599" gradientUnits="userSpaceOnUse">
<stop stop-color="#4B9FCE"/>
<stop offset="0.265055" stop-color="#68B8E3"/>
<stop offset="1" stop-color="#45A6DA"/>
</linearGradient>
<linearGradient id="paint1_linear_28_642" x1="1.47478e-05" y1="61.7312" x2="1646.55" y2="534.599" gradientUnits="userSpaceOnUse">
<stop stop-color="#4B9FCE"/>
<stop offset="0.265055" stop-color="#68B8E3"/>
<stop offset="1" stop-color="#45A6DA"/>
</linearGradient>
<radialGradient id="paint2_radial_28_642" cx="0" cy="0" r="1" gradientUnits="userSpaceOnUse" gradientTransform="translate(950.131 429.555) rotate(41.0866) scale(370.88 501.163)">
<stop stop-color="#0076B7"/>
<stop offset="1" stop-color="#139BD6" stop-opacity="0"/>
</radialGradient>
</defs>
</svg>
